<svg xmlns="http://www.w3.org/2000/svg" width="154" height="29" viewBox="0 0 154 29" fill="none"><path d="M13.1461 7.20282V12.59C13.1467 12.6523 13.1339 12.7141 13.1084 12.771C13.0829 12.8279 13.0454 12.8786 12.9985 12.9196C12.9516 12.9607 12.8963 12.9911 12.8365 13.0088C12.7768 13.0264 12.7139 13.0309 12.6522 13.022C12.1552 12.9453 11.653 12.9082 11.1502 12.9111C9.73416 12.9111 8.57589 13.3686 7.67539 14.2835C6.77489 15.1984 6.32464 16.613 6.32464 18.5273V27.1228C6.32464 27.2374 6.27912 27.3473 6.1981 27.4283C6.11709 27.5093 6.0072 27.5548 5.89263 27.5548H0.432011C0.317434 27.5548 0.20755 27.5093 0.126533 27.4283C0.045515 27.3473 0 27.2374 0 27.1228V7.29786C0 7.18329 0.045515 7.0734 0.126533 6.99239C0.20755 6.91137 0.317434 6.86585 0.432011 6.86585H5.68526C5.79984 6.86585 5.90972 6.91137 5.99074 6.99239C6.07176 7.0734 6.11727 7.18329 6.11727 7.29786V8.21373C6.11714 8.30135 6.14366 8.38693 6.19331 8.45913C6.24295 8.53133 6.31337 8.58673 6.39523 8.61797C6.47709 8.64922 6.56652 8.65483 6.65164 8.63407C6.73677 8.61331 6.81357 8.56716 6.87185 8.50173C7.2976 8.02096 7.82026 7.63571 8.40549 7.3713C9.36765 6.91248 10.4184 6.66921 11.4843 6.65849C11.9299 6.65433 12.3748 6.69583 12.812 6.78233C12.907 6.80443 12.9917 6.85801 13.0523 6.93435C13.113 7.0107 13.146 7.10531 13.1461 7.20282Z" fill="#000"></path><path d="M30.042 20.2005L34.5249 21.472C34.5804 21.4884 34.6321 21.5158 34.6769 21.5525C34.7217 21.5893 34.7586 21.6347 34.7854 21.686C34.8123 21.7373 34.8286 21.7935 34.8333 21.8513C34.838 21.909 34.8311 21.9671 34.8129 22.0221C34.2411 23.7504 33.1359 25.2528 31.6563 26.3134C29.9916 27.547 27.9117 28.1643 25.4166 28.1653C22.4214 28.1653 19.8773 27.1669 17.7844 25.17C15.6916 23.1732 14.6476 20.4971 14.6524 17.1418C14.6524 13.9248 15.6714 11.3039 17.7096 9.27922C19.7477 7.25453 22.1674 6.24219 24.9688 6.24219C28.1858 6.24219 30.7164 7.17821 32.5606 9.05026C34.4049 10.9223 35.327 13.522 35.327 16.8495C35.327 17.5522 35.3082 18.075 35.2722 18.4206C35.2605 18.5267 35.2098 18.6248 35.1301 18.6958C35.0503 18.7668 34.947 18.8057 34.8402 18.8051H21.288C21.2246 18.8041 21.1617 18.8172 21.1038 18.8434C21.046 18.8695 20.9946 18.9081 20.9533 18.9563C20.9121 19.0046 20.882 19.0614 20.8652 19.1226C20.8484 19.1838 20.8452 19.248 20.856 19.3105C21.0198 20.2408 21.5207 21.078 22.263 21.6621C23.171 22.4222 24.3234 22.8283 25.5074 22.8055C27.4994 22.8055 28.8396 22.0221 29.5279 20.4553C29.5676 20.3573 29.6418 20.2772 29.7365 20.2302C29.8313 20.1832 29.94 20.1727 30.042 20.2005ZM21.4421 14.7283H28.7229C28.7869 14.7294 28.8502 14.7162 28.9084 14.6898C28.9666 14.6634 29.0183 14.6244 29.0596 14.5757C29.1009 14.5269 29.1309 14.4696 29.1474 14.4078C29.1639 14.3461 29.1665 14.2814 29.155 14.2185C29.0114 13.4809 28.6491 12.8035 28.1153 12.2745C27.4356 11.5814 26.4165 11.2348 25.0581 11.2348C23.8369 11.2348 22.8663 11.5953 22.1463 12.3163C21.6069 12.8294 21.2202 13.4818 21.0288 14.2013C21.0147 14.2638 21.0147 14.3287 21.0288 14.3913C21.0429 14.4539 21.0707 14.5125 21.1103 14.563C21.1499 14.6134 21.2002 14.6544 21.2576 14.683C21.315 14.7116 21.378 14.7271 21.4421 14.7283Z" fill="#000"></path><path d="M43.1332 15.6859V27.1097C43.1332 27.2243 43.0877 27.3342 43.0067 27.4152C42.9257 27.4962 42.8158 27.5417 42.7012 27.5417H37.2406C37.126 27.5417 37.0161 27.4962 36.9351 27.4152C36.8541 27.3342 36.8086 27.2243 36.8086 27.1097V7.29771C36.8086 7.18313 36.8541 7.07325 36.9351 6.99223C37.0161 6.91121 37.126 6.8657 37.2406 6.8657H42.4939C42.6084 6.8657 42.7183 6.91121 42.7993 6.99223C42.8804 7.07325 42.9259 7.18313 42.9259 7.29771V7.96732C42.9268 8.05217 42.9527 8.13487 43.0003 8.2051C43.0479 8.27534 43.1152 8.32999 43.1936 8.36224C43.2721 8.3945 43.3584 8.40292 43.4416 8.38647C43.5249 8.37002 43.6014 8.32942 43.6617 8.26973C44.1523 7.77898 44.7274 7.38089 45.3595 7.09466C46.4048 6.59355 47.5484 6.3309 48.7076 6.32568C51.1758 6.32568 53.0479 7.0937 54.3237 8.62974C55.5996 10.1658 56.2376 12.142 56.2376 14.5584V27.1054C56.2376 27.22 56.192 27.3299 56.111 27.4109C56.03 27.4919 55.9201 27.5374 55.8055 27.5374H50.3435C50.2289 27.5374 50.119 27.4919 50.038 27.4109C49.957 27.3299 49.9115 27.22 49.9115 27.1054V15.6442C49.9115 14.5622 49.6273 13.6953 49.059 13.0434C48.4906 12.3916 47.6516 12.0657 46.5418 12.0657C45.5165 12.0657 44.6914 12.4055 44.0664 13.0852C43.4414 13.7649 43.1304 14.6318 43.1332 15.6859Z" fill="#000"></path><path d="M67.5477 20.1371C67.5477 21.5772 68.3104 22.2972 69.8359 22.2972C70.2222 22.2941 70.6076 22.2584 70.9879 22.1906C71.0501 22.1793 71.114 22.1817 71.1751 22.1977C71.2362 22.2137 71.2931 22.2429 71.3417 22.2833C71.3903 22.3236 71.4295 22.3742 71.4564 22.4313C71.4834 22.4885 71.4975 22.5508 71.4977 22.614V27.0508C71.498 27.1364 71.4728 27.2201 71.4253 27.2914C71.3779 27.3627 71.3104 27.4183 71.2313 27.4511C70.4777 27.7573 69.4696 27.9114 68.2072 27.9133C66.0712 27.9133 64.3863 27.3167 63.1527 26.1234C61.9191 24.9301 61.3046 23.3091 61.3094 21.2604V12.8304C61.3094 12.7158 61.2639 12.6059 61.1829 12.5249C61.1019 12.4439 60.992 12.3984 60.8774 12.3984H58.078C57.9634 12.3984 57.8535 12.3529 57.7725 12.2719C57.6915 12.1908 57.646 12.081 57.646 11.9664V7.29779C57.646 7.18321 57.6915 7.07333 57.7725 6.99231C57.8535 6.91129 57.9634 6.86578 58.078 6.86578H60.8141C60.9286 6.86578 61.0385 6.82026 61.1196 6.73925C61.2006 6.65823 61.2461 6.54835 61.2461 6.43377V1.26404C61.2461 1.14947 61.2916 1.03958 61.3726 0.958564C61.4536 0.877546 61.5635 0.832031 61.6781 0.832031H67.1171C67.2317 0.832031 67.3416 0.877546 67.4226 0.958564C67.5036 1.03958 67.5491 1.14947 67.5491 1.26404L67.5477 20.1371Z" fill="#000"></path><path d="M96.3485 13.5619C96.4578 13.5286 96.5494 13.4534 96.6034 13.3527C96.6573 13.2521 96.6693 13.1341 96.6365 13.0247C95.375 8.83133 91.5186 6.13847 86.8097 6.24215C79.6671 6.16295 74.8502 12.4429 76.0771 19.3148C76.0885 19.3747 76.1125 19.4316 76.1475 19.4816C76.1824 19.5316 76.2276 19.5736 76.28 19.6049C76.3323 19.6362 76.3907 19.656 76.4513 19.6631C76.5119 19.6702 76.5733 19.6644 76.6315 19.646C77.9981 19.214 80.0487 18.5761 81.8963 18C81.9868 17.971 82.0652 17.9129 82.1193 17.8348C82.1735 17.7567 82.2004 17.663 82.1958 17.568C82.0057 14.544 83.8461 12.0455 86.935 12.0613C88.9035 12.0239 90.3335 13.0794 90.9671 14.7513C91.0044 14.8552 91.0802 14.9409 91.1787 14.9907C91.2773 15.0405 91.3912 15.0507 91.497 15.0192L96.3485 13.5619Z" fill="#000"></path><path d="M114.229 26.2356C114.222 26.1502 114.19 26.0688 114.136 26.0019C114.082 25.9349 114.01 25.8855 113.928 25.8599C113.846 25.8342 113.758 25.8335 113.676 25.8579C113.594 25.8822 113.521 25.9305 113.466 25.9966C113.05 26.4982 112.549 26.9223 111.986 27.2494C110.957 27.8443 109.784 28.1466 108.596 28.1235C105.573 28.1235 103.105 27.0905 101.191 25.0246C99.2779 22.9586 98.3203 20.331 98.3184 17.1418C98.3184 14.0083 99.2472 11.4081 101.105 9.34115C102.962 7.27421 105.389 6.24123 108.386 6.24219C110.018 6.24219 111.307 6.56812 112.254 7.21997C112.663 7.49657 113.042 7.81405 113.387 8.16752C113.447 8.22793 113.523 8.26931 113.607 8.28647C113.69 8.30363 113.776 8.2958 113.855 8.26396C113.934 8.23213 114.002 8.1777 114.05 8.10751C114.098 8.03733 114.124 7.9545 114.126 7.86943V7.29341C114.126 7.17884 114.171 7.06895 114.252 6.98794C114.333 6.90692 114.443 6.8614 114.558 6.8614H119.812C119.927 6.8614 120.037 6.90692 120.118 6.98794C120.199 7.06895 120.244 7.17884 120.244 7.29341V23.8394C120.244 24.9281 120.287 26.0067 120.371 27.0752C120.376 27.1348 120.368 27.1947 120.349 27.2511C120.329 27.3076 120.298 27.3594 120.257 27.4033C120.217 27.4471 120.168 27.4821 120.113 27.5059C120.058 27.5297 119.999 27.5419 119.939 27.5418H114.735C114.626 27.5422 114.522 27.5018 114.442 27.4287C114.362 27.3556 114.312 27.2552 114.303 27.1472C114.271 26.7944 114.248 26.4934 114.229 26.2356ZM104.686 17.1836C104.686 18.8473 105.137 20.1784 106.038 21.1768C106.464 21.6467 106.983 22.0225 107.563 22.2803C108.142 22.5382 108.769 22.6723 109.403 22.6742C110.037 22.6761 110.665 22.5457 111.245 22.2914C111.826 22.037 112.348 21.6643 112.776 21.197C113.678 20.2129 114.129 18.8751 114.129 17.1836C114.129 15.4642 113.685 14.1259 112.798 13.1688C111.911 12.2116 110.788 11.7316 109.428 11.7287C108.014 11.7287 106.87 12.2001 105.997 13.1428C105.123 14.0856 104.686 15.4325 104.686 17.1836Z" fill="#F7A70A"></path><path d="M135.015 7.20268V12.5899C135.015 12.6523 135.002 12.7142 134.977 12.7712C134.951 12.8283 134.914 12.8791 134.867 12.9201C134.82 12.9612 134.764 12.9916 134.704 13.0091C134.644 13.0267 134.581 13.031 134.519 13.0219C134.022 12.9452 133.52 12.9081 133.017 12.911C131.603 12.911 130.445 13.3684 129.544 14.2833C128.643 15.1982 128.192 16.6128 128.192 18.5271V27.1227C128.192 27.2373 128.146 27.3472 128.065 27.4282C127.984 27.5092 127.874 27.5547 127.76 27.5547H122.298C122.183 27.5547 122.073 27.5092 121.992 27.4282C121.911 27.3472 121.866 27.2373 121.866 27.1227V7.29773C121.866 7.18315 121.911 7.07327 121.992 6.99225C122.073 6.91123 122.183 6.86572 122.298 6.86572H127.551C127.666 6.86572 127.775 6.91123 127.856 6.99225C127.937 7.07327 127.983 7.18315 127.983 7.29773V8.21359C127.983 8.30089 128.01 8.38608 128.059 8.45794C128.109 8.52979 128.179 8.58495 128.261 8.61613C128.342 8.64731 128.431 8.65306 128.516 8.63261C128.601 8.61217 128.678 8.56649 128.736 8.5016C129.162 8.02115 129.685 7.63595 130.27 7.37117C131.232 6.91451 132.283 6.67322 133.349 6.66411C133.794 6.65988 134.239 6.70138 134.676 6.78796C134.771 6.80898 134.856 6.86135 134.917 6.93659C134.979 7.01184 135.013 7.10558 135.015 7.20268Z" fill="#F7A70A"></path><path d="M136.842 21.603L141.363 20.7981C141.472 20.7792 141.585 20.8034 141.677 20.8657C141.77 20.9279 141.834 21.0234 141.858 21.1322C141.973 21.7264 142.266 22.2715 142.699 22.6946C143.239 23.2361 144.023 23.5063 145.049 23.5053C145.826 23.5053 146.422 23.3321 146.838 22.9855C147.033 22.8367 147.191 22.6447 147.299 22.4246C147.407 22.2044 147.463 21.9621 147.461 21.7168C147.461 20.8864 146.782 20.3181 145.423 20.0118L143.052 19.4704C140.94 19.0278 139.387 18.2444 138.393 17.1202C137.404 16.0204 136.868 14.586 136.896 13.1068C136.896 11.1935 137.651 9.57107 139.162 8.23952C140.673 6.90796 142.566 6.24219 144.84 6.24219C147.528 6.24219 149.544 6.88684 150.888 8.17616C152.11 9.34835 152.834 10.6165 153.061 11.9807C153.079 12.0923 153.052 12.2063 152.987 12.2983C152.921 12.3904 152.823 12.4531 152.712 12.4732L148.302 13.2782C148.194 13.2974 148.082 13.2746 147.99 13.2144C147.898 13.1542 147.833 13.0611 147.807 12.9542C147.691 12.4109 147.418 11.9139 147.02 11.5257C146.535 11.0543 145.834 10.8186 144.919 10.8186C144.351 10.8041 143.793 10.9794 143.335 11.3169C143.127 11.4615 142.957 11.6555 142.84 11.8816C142.724 12.1076 142.666 12.3588 142.67 12.6129C142.67 13.4452 143.211 13.9584 144.293 14.1523L147.038 14.6923C149.119 15.1051 150.703 15.8923 151.788 17.054C152.847 18.1617 153.429 19.6403 153.41 21.1725C153.41 23.0868 152.69 24.7298 151.25 26.1017C149.81 27.4736 147.785 28.16 145.176 28.161C143.651 28.161 142.3 27.9392 141.121 27.4957C139.942 27.0521 139.04 26.4761 138.416 25.7676C137.845 25.1399 137.369 24.4321 137.002 23.6666C136.765 23.1631 136.594 22.6305 136.495 22.0826C136.481 21.9735 136.509 21.8631 136.574 21.774C136.638 21.6849 136.734 21.6238 136.842 21.603Z" fill="#F7A70A"></path><path d="M74.0655 6.896H69.4545C69.2167 6.896 69.0239 7.08877 69.0239 7.32657V11.9376C69.0239 12.1754 69.2167 12.3681 69.4545 12.3681H74.0655C74.3033 12.3681 74.4961 12.1754 74.4961 11.9376V7.32657C74.4961 7.08877 74.3033 6.896 74.0655 6.896Z" fill="#F7A70A"></path><path d="M91.1875 19.646C89.8914 23.2649 84.0809 23.1425 82.6394 19.6201C82.597 19.5222 82.5198 19.4434 82.4228 19.399C82.3257 19.3546 82.2156 19.3477 82.1138 19.3796C79.9149 20.0637 78.014 20.6541 76.9902 20.9795C76.9332 20.9975 76.8806 21.0272 76.8356 21.0666C76.7907 21.106 76.7544 21.1543 76.7291 21.2084C76.7038 21.2626 76.69 21.3214 76.6886 21.3811C76.6872 21.4409 76.6982 21.5003 76.7209 21.5555C78.3928 25.5876 82.5357 28.2488 87.0186 28.1682C91.5806 28.2906 95.5148 25.4407 96.7604 21.3856C96.7936 21.276 96.7819 21.1577 96.7279 21.0567C96.6739 20.9557 96.582 20.8803 96.4724 20.847L91.7131 19.3912C91.6095 19.3601 91.498 19.3691 91.4007 19.4163C91.3034 19.4635 91.2273 19.5455 91.1875 19.646Z" fill="#F7A70A"></path></svg>