<svg width="199" height="38" viewBox="0 0 199 38" fill="none" xmlns="http://www.w3.org/2000/svg">
<path d="M34.2943 26.2208L20.6767 12.6058L0 12.5811L13.6397 26.2208H34.2943Z" fill="#2D6D44"/>
<path d="M30.0777 5.92504C26.6697 2.45484 22.0101 0.499989 17.1463 0.499989C12.2825 0.499989 7.62286 2.45484 4.21494 5.92504C2.34725 7.81614 0.90956 10.0879 0 12.5854H34.2926C33.383 10.0879 31.9454 7.81614 30.0777 5.92504Z" fill="#79A53D"/>
<path d="M0 26.2212C0.928964 28.5713 2.36442 30.6879 4.20425 32.4203C11.3522 39.1933 22.942 39.1933 30.09 32.4203C31.9298 30.6879 33.3653 28.5713 34.2943 26.2212L0 26.2212Z" fill="#79A53D"/>
<path d="M52.752 22.7238C52.752 22.0964 53.1573 21.8382 53.6375 21.8382H54.4491C54.9655 21.8382 55.1497 22.2444 55.1135 22.945C55.0395 24.2738 55.3347 25.7497 56.8838 25.7497C58.5078 25.7497 58.9132 24.569 58.9132 23.167C58.9132 21.58 57.4742 20.4733 56.2943 19.6247C54.8915 18.5911 52.8991 16.8208 52.8991 14.4962C52.8991 11.5443 54.3751 9.77312 57.0688 9.77312C59.7626 9.77312 61.0938 10.9909 61.0938 14.6064C61.0938 15.2708 60.6506 15.492 60.2083 15.492H59.3967C58.8795 15.492 58.6953 15.0866 58.7323 14.3852C58.8063 13.2414 58.6583 11.9497 57.0721 11.9497C55.8174 11.9497 55.153 12.8352 55.153 14.164C55.153 15.64 56.1126 16.6357 57.1091 17.3709C58.655 18.5179 61.1646 20.3968 61.1646 22.9458C61.1646 25.2704 60.3892 27.9271 56.8838 27.9271C54.2279 27.9263 52.752 26.3763 52.752 22.7238Z" fill="#636363"/>
<path fill-rule="evenodd" clip-rule="evenodd" d="M68.1013 9.77329C64.3008 9.77329 63.4893 13.4628 63.4893 18.8503C63.4893 24.237 64.2638 27.9265 68.0627 27.9248C70.8666 27.9248 72.0844 26.2293 72.0844 22.909C72.0844 22.2446 71.6412 22.0234 71.1988 22.0234H70.5714C70.0551 22.0234 69.87 22.4288 69.907 23.1302C69.9449 23.9048 69.8339 25.7499 68.1359 25.7499C66.3672 25.7499 65.998 23.7576 65.998 19.1085H71.9019C72.0517 18.1063 72.138 17.0956 72.1601 16.0825C72.1601 11.3964 70.9053 9.77329 68.1013 9.77329ZM69.9089 15.382C69.9089 16.1936 69.8719 16.71 69.8358 17.1524H66.0336C66.0336 13.3889 66.587 11.9499 68.1 11.9499C69.6507 11.9499 69.9089 13.3527 69.9089 15.382Z" fill="#636363"/>
<path fill-rule="evenodd" clip-rule="evenodd" d="M83.6168 9.8946C82.9944 9.8946 82.2782 10.2638 81.7593 10.9709C81.4829 10.6992 81.1695 10.4678 80.8285 10.2835C80.7989 10.2688 80.7681 10.253 80.7359 10.2366L80.7359 10.2365C80.3737 10.0515 79.835 9.7762 78.8345 9.7762C76.2962 9.7762 74.6287 11.6978 74.6287 15.8314C74.6287 18.4421 75.3177 20.182 76.4376 21.0889C75.7124 21.6686 75.3144 22.4662 75.3144 23.5903C75.3144 24.6419 75.677 25.3672 76.2929 25.9831C74.9518 26.9262 74.2266 28.5938 74.2266 30.3707C74.2266 33.1261 75.9303 35.4827 79.1207 35.4827C82.3111 35.4827 84.0156 33.1261 84.0156 30.3707C84.0156 27.6153 82.3119 25.1493 79.1207 25.1493C78.8294 25.1538 78.5387 25.1782 78.2507 25.2225C77.8158 24.9322 77.5625 24.424 77.5625 23.5903C77.5625 22.6858 77.9605 22.1036 78.467 21.8503C78.5213 21.8503 78.5848 21.8594 78.6483 21.8684L78.6483 21.8684C78.7118 21.8775 78.7753 21.8865 78.8296 21.8865C81.3671 21.8865 83.0355 19.9649 83.0355 15.8314C83.0355 14.4228 82.8431 13.2873 82.4977 12.3926C82.6989 12.3538 82.903 12.3315 83.1079 12.326C83.3973 12.326 83.579 12.3622 83.9055 12.5439C84.0433 12.6408 84.2082 12.6914 84.3766 12.6887C84.7392 12.6887 84.9201 12.4716 84.9201 12.109V11.0186C84.9218 10.2572 84.3783 9.8946 83.6168 9.8946ZM79.1204 27.3946C80.9294 27.3946 81.7681 28.7004 81.7681 30.368C81.7681 32.0355 80.9335 33.3413 79.1204 33.3413C77.3073 33.3413 76.4744 32.0355 76.4744 30.368C76.4744 28.7004 77.3081 27.3946 79.1204 27.3946ZM76.8735 15.8287C76.8735 18.1853 77.269 19.9622 78.8313 19.9622C80.318 19.9622 80.7891 18.1853 80.7891 15.8287C80.7891 13.4721 80.318 11.6952 78.8313 11.6952C77.2723 11.6952 76.8735 13.4721 76.8735 15.8287Z" fill="#636363"/>
<path d="M86.2553 23.9051V10.6946C86.2488 10.5068 86.3205 10.3248 86.4533 10.1918C86.5861 10.0589 86.7681 9.98695 86.9559 9.99321H88.0643C88.2521 9.98695 88.4341 10.0589 88.5668 10.1918C88.6996 10.3248 88.7713 10.5068 88.7648 10.6946V23.9051C88.7648 24.9741 89.171 25.6023 90.3148 25.6023C90.9792 25.6023 91.975 25.3441 92.7495 24.9379V10.6946C92.743 10.5067 92.8149 10.3245 92.9478 10.1915C93.0808 10.0585 93.263 9.98672 93.4509 9.99321H94.5602C94.7481 9.98672 94.9303 10.0585 95.0633 10.1915C95.1963 10.3245 95.2681 10.5067 95.2616 10.6946V25.1583C95.2616 26.0068 95.5568 26.339 96.1841 26.339V26.7814C96.1841 27.2978 95.6669 27.9252 94.3752 27.9252C93.6738 27.9252 93.1204 27.63 92.8951 26.7814C92.0095 27.4458 90.8287 27.9252 89.648 27.9252C87.7674 27.9268 86.2553 26.8932 86.2553 23.9051Z" fill="#636363"/>
<path d="M98.8744 27.0043V10.6947C98.8679 10.5069 98.9396 10.3248 99.0724 10.1919C99.2052 10.059 99.3872 9.98704 99.575 9.9933H100.682C100.87 9.98611 101.053 10.0576 101.187 10.1907C101.32 10.3237 101.392 10.5063 101.386 10.6947V11.1741C102.418 10.2145 103.489 9.9933 103.935 9.9933C104.709 9.9933 105.263 10.3625 105.263 11.1371V12.2438C105.263 12.613 105.078 12.8342 104.709 12.8342C104.539 12.8318 104.372 12.7807 104.23 12.687C103.901 12.502 103.713 12.4659 103.418 12.4659C102.312 12.4659 101.389 13.1664 101.389 13.1664V27.0043C101.395 27.1923 101.324 27.3745 101.191 27.5075C101.058 27.6404 100.875 27.7122 100.688 27.7057H99.5766C99.3886 27.7125 99.2061 27.6408 99.073 27.5078C98.9398 27.3748 98.8679 27.1924 98.8744 27.0043Z" fill="#636363"/>
<path fill-rule="evenodd" clip-rule="evenodd" d="M111.087 9.77329C108.209 9.77329 106.585 11.8396 106.585 18.8503C106.585 25.8601 108.21 27.9265 111.088 27.9265C113.966 27.9265 115.588 25.8609 115.588 18.8503C115.588 11.8396 113.965 9.77329 111.087 9.77329ZM111.088 11.9869C112.232 11.9869 113.081 12.3931 113.081 18.8503H113.079C113.079 25.3068 112.232 25.7129 111.088 25.7129C109.945 25.7129 109.096 25.3076 109.096 18.8503C109.096 12.3931 109.945 11.9869 111.088 11.9869Z" fill="#636363"/>
<path d="M117.913 22.7238C117.913 22.0964 118.318 21.8382 118.798 21.8382H119.61C120.127 21.8382 120.311 22.2444 120.274 22.945C120.201 24.2738 120.495 25.7497 122.045 25.7497C123.668 25.7497 124.074 24.569 124.074 23.167C124.074 21.58 122.635 20.4733 121.455 19.6247C120.057 18.5911 118.06 16.8208 118.06 14.4962C118.06 11.5443 119.54 9.77312 122.229 9.77312C124.918 9.77312 126.252 10.9909 126.252 14.6064C126.252 15.2708 125.808 15.492 125.366 15.492H124.555C124.037 15.492 123.853 15.0866 123.89 14.3852C123.963 13.2414 123.816 11.9497 122.229 11.9497C120.975 11.9497 120.311 12.8352 120.311 14.164C120.311 15.64 121.27 16.6357 122.266 17.3709C123.816 18.5146 126.325 20.396 126.325 22.9417C126.325 25.2663 125.55 27.923 122.049 27.923C119.393 27.9263 117.913 26.3763 117.913 22.7238Z" fill="#636363"/>
<path fill-rule="evenodd" clip-rule="evenodd" d="M133.521 26.5982C133.852 27.2988 134.738 27.8892 136.14 27.8892C139.277 27.8892 140.937 25.3796 140.937 18.8484C140.937 12.3171 139.277 9.80836 136.14 9.80836C134.849 9.80836 133.705 10.3247 133.262 11.2843C132.856 10.2877 132.008 9.99254 130.974 9.99254H129.683C129.495 9.98605 129.313 10.0579 129.18 10.1908C129.047 10.3238 128.975 10.506 128.982 10.6939V34.9738C128.976 35.1616 129.048 35.3436 129.18 35.4764C129.313 35.6092 129.495 35.6809 129.683 35.6744H132.819C133.007 35.6806 133.189 35.6088 133.322 35.4761C133.455 35.3434 133.527 35.1615 133.521 34.9738V26.5982ZM133.522 13.4283C133.852 13.2567 134.218 13.1681 134.59 13.1701V13.1668C135.66 13.1668 136.398 13.647 136.399 18.8495C136.399 24.0881 135.659 24.5313 134.59 24.5313C134.218 24.5333 133.852 24.4447 133.522 24.2731V13.4283Z" fill="#636363"/>
<path d="M150.716 14.718C150.531 14.7012 150.353 14.6375 150.2 14.5329C149.942 14.3827 149.648 14.3062 149.35 14.3118C148.243 14.3118 147.358 15.0131 147.358 15.0131V27.0043C147.364 27.192 147.293 27.3741 147.16 27.5071C147.027 27.64 146.845 27.7119 146.657 27.7056H143.521C143.333 27.7121 143.151 27.6403 143.018 27.5074C142.885 27.3744 142.813 27.1922 142.82 27.0043V10.6946C142.813 10.5067 142.885 10.3245 143.018 10.1915C143.151 10.0585 143.333 9.98672 143.521 9.99321H144.849C145.882 9.99321 146.62 10.5466 146.878 11.4322C147.727 10.5096 148.797 9.99321 149.904 9.99321C150.679 9.99321 151.232 10.3624 151.232 11.137V14.0889C151.232 14.4598 151.084 14.718 150.716 14.718Z" fill="#636363"/>
<path fill-rule="evenodd" clip-rule="evenodd" d="M151.971 18.8503C151.971 25.8601 154.59 27.9265 157.948 27.9265C161.342 27.9265 163.925 25.8609 163.925 18.8503C163.925 11.8396 161.342 9.77329 157.948 9.77329C154.59 9.77329 151.971 11.8405 151.971 18.8503ZM156.509 18.8536C156.509 13.6141 156.988 13.2079 157.948 13.2079V13.2046C158.906 13.2046 159.387 13.6149 159.387 18.8536C159.387 24.0922 158.907 24.4984 157.948 24.4984C156.988 24.4984 156.509 24.0931 156.509 18.8536Z" fill="#636363"/>
<path d="M184.439 27.7053H181.302C181.115 27.7115 180.933 27.6396 180.8 27.5067C180.667 27.3737 180.595 27.1917 180.602 27.0039V14.4964C180.602 13.5738 180.233 13.2046 179.458 13.2046C178.854 13.2246 178.262 13.3759 177.723 13.6478V27.0039C177.73 27.1917 177.658 27.3737 177.525 27.5067C177.392 27.6396 177.21 27.7115 177.022 27.7053H173.886C173.698 27.7118 173.516 27.6399 173.383 27.507C173.25 27.374 173.178 27.1918 173.185 27.0039V14.4964C173.185 13.5738 172.816 13.2046 172.041 13.2046C171.438 13.2246 170.846 13.3759 170.307 13.6478V27.0039C170.314 27.1917 170.242 27.3737 170.109 27.5067C169.976 27.6396 169.794 27.7115 169.606 27.7053H166.47C166.282 27.7115 166.1 27.6396 165.967 27.5067C165.834 27.3737 165.762 27.1917 165.769 27.0039V10.6942C165.762 10.5064 165.834 10.3244 165.967 10.1914C166.1 10.0585 166.282 9.98657 166.47 9.99283H168.279C169.164 9.99283 169.939 10.399 170.198 11.2476C171.143 10.293 172.433 9.76071 173.776 9.77164C175.437 9.77164 176.507 10.399 177.097 11.4688C178.13 10.5092 179.385 9.77164 181.193 9.77164C183.886 9.77164 185.14 11.3948 185.14 14.3837V27.0039C185.146 27.1918 185.075 27.374 184.942 27.507C184.809 27.6399 184.626 27.7118 184.439 27.7053Z" fill="#636363"/>
<path fill-rule="evenodd" clip-rule="evenodd" d="M186.95 18.8503C186.95 25.8601 189.57 27.9265 192.927 27.9265C196.322 27.9265 198.904 25.8609 198.904 18.8503C198.904 11.8396 196.322 9.77329 192.927 9.77329C189.57 9.77329 186.95 11.8405 186.95 18.8503ZM191.488 18.8536C191.488 13.6141 191.968 13.2079 192.927 13.2079V13.2046C193.891 13.2046 194.366 13.6149 194.366 18.8536C194.366 24.0922 193.887 24.4984 192.927 24.4984C191.968 24.4984 191.488 24.0931 191.488 18.8536Z" fill="#636363"/>
</svg>
