<svg width="150" height="47" viewBox="0 0 150 47" fill="none" xmlns="http://www.w3.org/2000/svg">
<g clip-path="url(#clip0)">
<path d="M22.1022 43.7513C9.91582 43.7513 0 33.9371 0 21.8756C0 9.8142 9.91582 0 22.1022 0C34.2885 0 44.2043 9.8142 44.2043 21.8756C44.2043 33.9371 34.2885 43.7513 22.1022 43.7513ZM22.1022 10.5953C15.8208 10.5953 10.705 15.6546 10.705 21.8756C10.705 28.0966 15.8167 33.156 22.1022 33.156C28.3876 33.156 33.4993 28.0966 33.4993 21.8756C33.4993 15.6546 28.3835 10.5953 22.1022 10.5953Z" fill="white"/>
<path d="M53.0962 13.175H56.678C57.2932 13.175 57.791 13.6678 57.791 14.2766V24.3552C57.791 25.5369 58.1148 26.4503 58.7664 27.0912C59.414 27.7361 60.2599 28.0566 61.2919 28.0566C61.9273 28.0566 62.5263 27.9324 63.0808 27.684C63.6393 27.4357 64.1169 27.0872 64.5135 26.6425C64.9102 26.1979 65.2218 25.6771 65.4485 25.0883C65.6751 24.4994 65.7884 23.8625 65.7884 23.1775V13.175H70.4833V31.6418H67.039C66.4481 31.6418 65.9625 31.1851 65.9301 30.6043L65.8694 29.5547C65.6306 29.8191 65.3392 30.0915 64.9952 30.3799C64.6512 30.6684 64.2505 30.9367 63.8012 31.1851C63.352 31.4335 62.8339 31.6378 62.2511 31.794C61.6683 31.9502 61.0046 32.0303 60.2639 32.0303C57.9286 32.0303 56.1519 31.3413 54.9337 29.9633C53.7154 28.5853 53.1043 26.7307 53.1043 24.3913V13.175H53.0962Z" fill="white"/>
<path d="M72.0496 13.1751H75.4938C76.0847 13.1751 76.5704 13.6317 76.6028 14.2126L76.6635 15.2621C76.9023 15.0017 77.1856 14.7253 77.5175 14.4369C77.8493 14.1485 78.246 13.8801 78.7114 13.6317C79.1768 13.3834 79.6989 13.1791 80.2818 13.0228C80.8646 12.8666 81.5283 12.7865 82.269 12.7865C84.6002 12.7865 86.381 13.4755 87.5992 14.8535C88.8175 16.2315 89.4286 18.0902 89.4286 20.4256V31.6458H85.8468C85.2316 31.6458 84.7338 31.1531 84.7338 30.5442V20.4616C84.7338 19.2799 84.41 18.3706 83.7584 17.7256C83.1068 17.0847 82.2649 16.7602 81.2329 16.7602C80.5974 16.7602 79.9984 16.8844 79.444 17.1328C78.8854 17.3811 78.4079 17.7297 78.0112 18.1743C77.6146 18.6189 77.303 19.1397 77.0763 19.7285C76.8497 20.3174 76.7363 20.9543 76.7363 21.6393V31.6378H73.1545C72.5393 31.6378 72.0415 31.1451 72.0415 30.5362V13.1751H72.0496Z" fill="white"/>
<path d="M90.6875 13.175H94.2693C94.8845 13.175 95.3823 13.6678 95.3823 14.2766V31.6418H91.8005C91.1853 31.6418 90.6875 31.1491 90.6875 30.5402V13.175Z" fill="white"/>
<path d="M110.191 29.8311C109.952 30.0955 109.661 30.3679 109.317 30.6563C108.973 30.9447 108.568 31.2091 108.103 31.4455C107.637 31.6818 107.123 31.8781 106.553 32.0343C105.982 32.1906 105.338 32.2707 104.622 32.2707C103.614 32.2707 102.619 32.0584 101.639 31.6418C100.656 31.2211 99.7815 30.6043 99.0125 29.7911C98.2435 28.9779 97.6202 27.9805 97.1426 26.7988C96.6651 25.617 96.4263 24.2671 96.4263 22.7449C96.4263 21.3028 96.6367 20.037 97.0617 18.9474C97.4867 17.8578 98.0168 16.9325 98.6523 16.1714C99.1825 15.5425 99.7653 15.0177 100.401 14.5971C101.036 14.1765 101.68 13.828 102.331 13.5556C102.983 13.2792 103.61 13.0829 104.221 12.9667C104.832 12.8506 105.363 12.7905 105.812 12.7905C106.423 12.7905 106.925 12.8105 107.322 12.8506C107.718 12.8906 108.078 12.9427 108.394 13.0068C108.714 13.0709 109.005 13.159 109.268 13.2632C109.531 13.3673 109.839 13.4875 110.183 13.6157V5.37976H113.724C114.34 5.37976 114.837 5.87247 114.837 6.48135V31.6418H111.345C110.758 31.6418 110.272 31.1931 110.236 30.6123L110.191 29.8311ZM110.191 17.7817C109.742 17.4132 109.216 17.1568 108.621 17.0126C108.026 16.8684 107.261 16.7963 106.334 16.7963C105.407 16.7963 104.638 16.9725 104.027 17.329C103.416 17.6816 102.886 18.1502 102.436 18.7271C102.04 19.2518 101.728 19.8647 101.502 20.5577C101.275 21.2547 101.162 21.9838 101.162 22.7409C101.162 24.3152 101.558 25.6291 102.356 26.6786C103.153 27.7281 104.306 28.2529 105.816 28.2529C106.613 28.2529 107.289 28.1006 107.844 27.8002C108.402 27.4998 108.851 27.1112 109.195 26.6385C109.539 26.1658 109.79 25.6491 109.952 25.0843C110.11 24.5195 110.191 23.9747 110.191 23.4499V17.7817Z" fill="white"/>
<path d="M128.339 29.9112C127.833 30.5161 127.064 31.0529 126.032 31.5256C124.996 31.9982 123.843 32.2346 122.572 32.2346C121.803 32.2346 121.042 32.1184 120.285 31.8821C119.528 31.6457 118.84 31.2852 118.217 30.8005C117.594 30.3158 117.088 29.6909 116.703 28.9298C116.319 28.1687 116.128 27.2754 116.128 26.2539C116.128 25.2044 116.327 24.2671 116.723 23.4379C117.12 22.6127 117.679 21.9157 118.395 21.3508C119.111 20.786 119.973 20.3614 120.981 20.073C121.989 19.7846 123.102 19.6404 124.324 19.6404C124.696 19.6404 125.105 19.6484 125.559 19.6604C126.008 19.6724 126.445 19.6924 126.87 19.7205C127.347 19.7485 127.837 19.7726 128.343 19.8006V19.368C128.343 18.4506 127.971 17.7296 127.23 17.2008C126.485 16.6761 125.518 16.4117 124.328 16.4117C123.001 16.4117 121.94 16.5839 121.147 16.9244C120.706 17.1127 120.293 17.313 119.909 17.5173C119.403 17.7857 118.775 17.6375 118.456 17.1688L116.893 14.8775C117.266 14.6171 117.691 14.3447 118.168 14.0683C118.646 13.7919 119.204 13.5435 119.84 13.3192C120.475 13.0949 121.212 12.9146 122.046 12.7664C122.879 12.6222 123.855 12.5501 124.968 12.5501C126.162 12.5501 127.242 12.7143 128.21 13.0428C129.177 13.3713 130.007 13.832 130.695 14.4208C131.383 15.0097 131.913 15.7187 132.285 16.5479C132.657 17.3731 132.844 18.2744 132.844 19.2438V31.6457H129.509C128.922 31.6457 128.44 31.1971 128.4 30.6203L128.339 29.9112ZM128.339 23.2937C127.861 23.2696 127.396 23.2416 126.947 23.2135C126.574 23.1895 126.186 23.1695 125.773 23.1535C125.36 23.1414 125.012 23.1334 124.721 23.1334C123.211 23.1334 122.147 23.4298 121.54 24.0187C120.928 24.6076 120.625 25.2845 120.625 26.0456C120.625 26.8348 120.908 27.4517 121.479 27.8963C122.05 28.341 122.891 28.5653 124.004 28.5653C124.563 28.5653 125.097 28.4731 125.615 28.2889C126.133 28.1046 126.591 27.8563 126.987 27.5398C127.384 27.2233 127.708 26.8588 127.963 26.4382C128.214 26.0176 128.339 25.573 128.339 25.1003V23.2937Z" fill="white"/>
<path d="M135.997 27.1392C136.373 26.7346 137 26.6585 137.446 26.979C137.879 27.2914 138.372 27.5638 138.923 27.8002C139.809 28.1807 140.825 28.373 141.966 28.373C142.974 28.373 143.784 28.2408 144.395 27.9804C145.006 27.72 145.309 27.2834 145.309 26.6825C145.309 26.4222 145.257 26.1778 145.152 25.9535C145.046 25.7292 144.82 25.5129 144.476 25.3046C144.132 25.0963 143.654 24.8839 143.043 24.6756C142.432 24.4673 141.61 24.243 140.578 24.0067C139.943 23.8505 139.279 23.6381 138.591 23.3778C137.903 23.1174 137.259 22.7529 136.66 22.2962C136.065 21.8355 135.572 21.2867 135.187 20.6418C134.803 20.0009 134.608 19.2318 134.608 18.3385C134.608 17.4211 134.835 16.6 135.284 15.8789C135.734 15.1579 136.324 14.553 137.053 14.0683C137.782 13.5836 138.603 13.2071 139.518 12.9467C140.432 12.6863 141.355 12.5541 142.282 12.5541C143.925 12.5541 145.326 12.7264 146.479 13.0668C147.633 13.4073 148.673 13.9201 149.604 14.6011L147.782 17.0566C147.459 17.4933 146.864 17.6375 146.382 17.3851C146.03 17.2008 145.633 17.0286 145.188 16.8683C144.366 16.5679 143.399 16.4157 142.286 16.4157C141.173 16.4157 140.396 16.5799 139.959 16.9084C139.522 17.2369 139.303 17.6375 139.303 18.1101C139.303 18.687 139.668 19.1396 140.396 19.4681C141.125 19.7966 142.258 20.1451 143.796 20.5096C144.751 20.7219 145.605 20.9823 146.362 21.2988C147.119 21.6152 147.766 22.0078 148.313 22.4805C148.855 22.9532 149.272 23.51 149.567 24.1549C149.859 24.7998 150.004 25.5649 150.004 26.4582C150.004 27.3515 149.79 28.1567 149.369 28.8777C148.944 29.5988 148.369 30.2117 147.637 30.7084C146.908 31.2091 146.058 31.5937 145.091 31.8701C144.124 32.1465 143.096 32.2826 142.007 32.2826C140.258 32.2826 138.68 32.0383 137.272 31.5536C135.867 31.0689 134.738 30.3519 133.892 29.4065L135.997 27.1392Z" fill="white"/>
<path d="M93.0467 10.367C94.437 10.367 95.5641 9.25144 95.5641 7.87536C95.5641 6.49929 94.437 5.38376 93.0467 5.38376C91.6564 5.38376 90.5293 6.49929 90.5293 7.87536C90.5293 9.25144 91.6564 10.367 93.0467 10.367Z" fill="white"/>
<path d="M57.3295 43.4228C57.0948 43.7352 56.7872 43.9636 56.4067 44.1158C56.0263 44.268 55.6337 44.3441 55.229 44.3441C54.97 44.3441 54.7109 44.3121 54.4519 44.244C54.1969 44.1759 53.9622 44.0677 53.7517 43.9115C53.5413 43.7553 53.3713 43.555 53.2377 43.3106C53.1082 43.0663 53.0435 42.7658 53.0435 42.4093C53.0435 41.7404 53.2782 41.2076 53.7517 40.807C54.2253 40.4064 54.9052 40.2061 55.7916 40.2061C55.9332 40.2061 56.087 40.2102 56.2489 40.2182C56.4108 40.2262 56.5646 40.2342 56.7062 40.2462C56.8519 40.2542 56.9774 40.2622 57.0826 40.2742C57.1919 40.2823 57.2688 40.2903 57.3133 40.3023V40.074C57.3133 39.6133 57.1717 39.2808 56.8884 39.0805C56.6051 38.8802 56.2206 38.7801 55.7349 38.7801C55.2573 38.7801 54.8809 38.8442 54.6017 38.9724C54.3224 39.1005 54.0877 39.2327 53.9015 39.3649L53.3349 38.5517C53.4441 38.4636 53.5737 38.3755 53.7274 38.2834C53.8812 38.1952 54.0593 38.1111 54.2657 38.035C54.4721 37.9589 54.7069 37.8988 54.9659 37.8467C55.2249 37.7987 55.5285 37.7746 55.8685 37.7746C56.6779 37.7746 57.3133 37.9669 57.7747 38.3555C58.2361 38.744 58.4668 39.2928 58.4668 40.0018V43.6191C58.4668 43.6912 58.4668 43.7673 58.4668 43.8514C58.4668 43.9355 58.4709 44.0397 58.4789 44.1639H57.3457L57.3295 43.4228ZM57.3133 41.2356C57.2769 41.2276 57.2081 41.2156 57.1029 41.2036C56.9976 41.1916 56.8803 41.1796 56.7467 41.1715C56.6132 41.1635 56.4675 41.1555 56.3137 41.1435C56.1599 41.1355 56.0142 41.1315 55.8685 41.1315C55.5285 41.1315 55.2492 41.1715 55.0388 41.2517C54.8283 41.3318 54.6624 41.4319 54.5409 41.5521C54.4195 41.6723 54.3345 41.8045 54.29 41.9527C54.2455 42.1009 54.2212 42.2411 54.2212 42.3733C54.2212 42.7098 54.3386 42.9661 54.5733 43.1424C54.8081 43.3146 55.1319 43.4028 55.5447 43.4028C55.7794 43.4028 56.002 43.3627 56.2125 43.2826C56.4229 43.2025 56.6091 43.0943 56.771 42.9621C56.9329 42.8299 57.0624 42.6737 57.1636 42.4935C57.2607 42.3172 57.3133 42.1329 57.3133 41.9447V41.2356Z" fill="white"/>
<path d="M60.106 35.275H61.3201V44.1719H60.106V35.275Z" fill="white"/>
<path d="M62.9351 37.9669H64.1492V41.6082C64.1492 42.193 64.2707 42.6217 64.5135 42.882C64.7563 43.1464 65.1084 43.2746 65.5658 43.2746C65.9179 43.2746 66.2052 43.2025 66.4359 43.0623C66.6666 42.9181 66.8528 42.7338 66.9945 42.5095C67.1361 42.2812 67.2373 42.0248 67.298 41.7364C67.3587 41.448 67.3871 41.1515 67.3871 40.8511V37.9709H68.6012V43.547C68.6012 43.583 68.6012 43.6632 68.6012 43.7954C68.6012 43.9235 68.6053 44.0517 68.6134 44.1759H67.4559L67.4154 43.2546C67.3344 43.3627 67.2373 43.4749 67.1199 43.6031C67.0026 43.7273 66.8609 43.8394 66.6869 43.9436C66.5169 44.0477 66.3186 44.1318 66.096 44.2039C65.8734 44.276 65.6144 44.3121 65.327 44.3121C64.5094 44.3121 63.9064 44.0798 63.5219 43.6111C63.1334 43.1424 62.9432 42.5055 62.9432 41.6963V37.9669H62.9351Z" fill="white"/>
<path d="M71.082 45.4377C71.2885 45.5819 71.5434 45.7021 71.8429 45.8062C72.1424 45.9064 72.5107 45.9585 72.9397 45.9585C73.5428 45.9585 73.992 45.7942 74.2875 45.4657C74.5829 45.1373 74.7327 44.7046 74.7327 44.1719V43.4108C74.6679 43.4628 74.587 43.539 74.4818 43.6311C74.3806 43.7232 74.247 43.8154 74.0892 43.8995C73.9313 43.9836 73.7451 44.0597 73.5306 44.1278C73.3161 44.1959 73.0693 44.228 72.79 44.228C72.3327 44.228 71.9239 44.1518 71.5718 43.9956C71.2156 43.8394 70.9161 43.6271 70.6773 43.3547C70.4345 43.0823 70.2524 42.7578 70.1228 42.3813C69.9974 42.0047 69.9326 41.5921 69.9326 41.1475C69.9326 40.6668 70.0176 40.2262 70.1876 39.8216C70.3576 39.417 70.6004 39.0645 70.908 38.7681C71.2197 38.4716 71.588 38.2393 72.021 38.0751C72.4541 37.9108 72.9316 37.8267 73.4618 37.8267C73.9758 37.8267 74.4494 37.8708 74.8905 37.9589C75.3317 38.047 75.6838 38.1472 75.955 38.2513V44.1759C75.955 45.0732 75.6919 45.7702 75.1657 46.2629C74.6396 46.7556 73.903 47.004 72.9478 47.004C72.3084 47.004 71.8025 46.9359 71.4261 46.7957C71.0497 46.6555 70.7421 46.4992 70.5114 46.323L71.082 45.4377ZM74.7448 39.0605C74.6639 39.0324 74.5263 38.9964 74.332 38.9483C74.1377 38.9002 73.8504 38.8762 73.4618 38.8762C73.1219 38.8762 72.8102 38.9323 72.531 39.0445C72.2517 39.1566 72.0129 39.3128 71.8106 39.5131C71.6082 39.7134 71.4503 39.9498 71.337 40.2262C71.2237 40.5026 71.167 40.803 71.167 41.1315C71.167 41.4159 71.1994 41.6843 71.2682 41.9326C71.337 42.181 71.4423 42.4013 71.592 42.5856C71.7418 42.7698 71.9279 42.9181 72.1505 43.0262C72.3731 43.1344 72.6483 43.1864 72.9721 43.1864C73.2676 43.1864 73.5306 43.1424 73.7532 43.0543C73.9758 42.9661 74.162 42.846 74.3077 42.7017C74.4494 42.5535 74.5587 42.3893 74.6315 42.209C74.7044 42.0288 74.7408 41.8365 74.7408 41.6402V39.0605H74.7448Z" fill="white"/>
<path d="M77.5698 37.9669H78.784V41.6082C78.784 42.193 78.9054 42.6217 79.1483 42.882C79.3911 43.1464 79.7432 43.2746 80.2006 43.2746C80.5527 43.2746 80.84 43.2025 81.0707 43.0623C81.3014 42.9181 81.4876 42.7338 81.6292 42.5095C81.7709 42.2812 81.8721 42.0248 81.9328 41.7364C81.9935 41.448 82.0218 41.1515 82.0218 40.8511V37.9709H83.236V43.547C83.236 43.583 83.236 43.6632 83.236 43.7954C83.236 43.9235 83.2401 44.0517 83.2482 44.1759H82.0906L82.0502 43.2546C81.9692 43.3627 81.8721 43.4749 81.7547 43.6031C81.6373 43.7273 81.4957 43.8394 81.3216 43.9436C81.1517 44.0477 80.9533 44.1318 80.7307 44.2039C80.5081 44.276 80.2491 44.3121 79.9618 44.3121C79.1442 44.3121 78.5412 44.0798 78.1567 43.6111C77.7681 43.1424 77.5779 42.5055 77.5779 41.6963V37.9669H77.5698Z" fill="white"/>
<path d="M90.5941 43.2625C90.5213 43.3427 90.416 43.4468 90.2703 43.571C90.1246 43.6952 89.9385 43.8153 89.7118 43.9315C89.4811 44.0477 89.214 44.1478 88.9024 44.2319C88.5907 44.3161 88.2386 44.3601 87.846 44.3601C87.3603 44.3601 86.9151 44.28 86.5104 44.1198C86.1057 43.9596 85.7617 43.7312 85.4743 43.4388C85.187 43.1464 84.9644 42.7939 84.8065 42.3853C84.6487 41.9767 84.5718 41.524 84.5718 41.0233C84.5718 40.5706 84.6487 40.146 84.8025 39.7495C84.9563 39.3529 85.1708 39.0124 85.45 38.724C85.7293 38.4356 86.0571 38.2072 86.4416 38.039C86.8221 37.8707 87.243 37.7866 87.7003 37.7866C88.2386 37.7866 88.7 37.8868 89.0885 38.0951C89.473 38.2994 89.7928 38.5718 90.0396 38.9082C90.2865 39.2447 90.4687 39.6333 90.586 40.0699C90.7034 40.5066 90.7601 40.9592 90.7601 41.4319H85.8143C85.8224 41.7083 85.8831 41.9607 85.9964 42.193C86.1097 42.4253 86.2595 42.6256 86.4497 42.7939C86.6399 42.9621 86.8544 43.0983 87.0973 43.1944C87.3401 43.2946 87.5951 43.3427 87.8663 43.3427C88.3965 43.3427 88.8336 43.2545 89.1735 43.0743C89.5135 42.898 89.7604 42.7218 89.9142 42.5535L90.5941 43.2625ZM89.5014 40.5306C89.4649 40.0499 89.2949 39.6413 88.9873 39.3048C88.6798 38.9683 88.2507 38.7961 87.6922 38.7961C87.4049 38.7961 87.1458 38.8442 86.9151 38.9443C86.6845 39.0444 86.4902 39.1726 86.3283 39.3329C86.1664 39.4931 86.0409 39.6774 85.9519 39.8857C85.8629 40.094 85.8143 40.3103 85.8021 40.5346H89.5014V40.5306Z" fill="white"/>
<path d="M92.0591 35.275H93.2733V44.1719H92.0591V35.275Z" fill="white"/>
<path d="M101.886 43.3827C101.841 43.4348 101.769 43.5189 101.663 43.6311C101.558 43.7432 101.425 43.8514 101.251 43.9596C101.081 44.0677 100.878 44.1599 100.652 44.24C100.421 44.3201 100.154 44.3601 99.8502 44.3601C99.4536 44.3601 99.0853 44.284 98.7453 44.1318C98.4054 43.9796 98.1059 43.7673 97.8549 43.4909C97.604 43.2145 97.4097 42.878 97.2681 42.4854C97.1305 42.0889 97.0576 41.6482 97.0576 41.1595C97.0576 40.5707 97.1588 40.0699 97.3693 39.6453C97.5797 39.2207 97.8387 38.8762 98.1585 38.6038C98.4782 38.3314 98.8222 38.1351 99.1946 38.011C99.5669 37.8868 99.919 37.8227 100.251 37.8227C100.591 37.8227 100.886 37.8587 101.133 37.9308C101.38 38.0029 101.631 38.0991 101.882 38.2233V35.275H103.096V43.547C103.096 43.583 103.096 43.6631 103.096 43.7953C103.096 43.9235 103.1 44.0517 103.108 44.1759H101.922L101.886 43.3827ZM101.886 39.3409C101.724 39.2087 101.518 39.0965 101.267 39.0084C101.016 38.9203 100.708 38.8762 100.352 38.8762C100.057 38.8762 99.7855 38.9283 99.5386 39.0364C99.2917 39.1446 99.0772 39.2928 98.891 39.4891C98.7049 39.6854 98.5632 39.9257 98.458 40.2101C98.3568 40.4945 98.3042 40.815 98.3042 41.1715C98.3042 41.4639 98.3406 41.7444 98.4135 42.0047C98.4863 42.2651 98.5956 42.4974 98.7453 42.6897C98.8951 42.882 99.0813 43.0382 99.3119 43.1504C99.5426 43.2626 99.8138 43.3186 100.125 43.3186C100.437 43.3186 100.708 43.2626 100.935 43.1464C101.158 43.0302 101.34 42.886 101.481 42.7138C101.619 42.5415 101.724 42.3492 101.793 42.1409C101.862 41.9326 101.894 41.7403 101.894 41.5601V39.3409H101.886Z" fill="white"/>
<path d="M110.458 43.2625C110.385 43.3427 110.28 43.4468 110.134 43.571C109.988 43.6952 109.802 43.8153 109.576 43.9315C109.345 44.0477 109.078 44.1478 108.766 44.2319C108.454 44.3161 108.102 44.3601 107.71 44.3601C107.224 44.3601 106.779 44.28 106.374 44.1198C105.969 43.9596 105.625 43.7312 105.338 43.4388C105.051 43.1464 104.828 42.7939 104.67 42.3853C104.512 41.9767 104.436 41.524 104.436 41.0233C104.436 40.5706 104.512 40.146 104.666 39.7495C104.82 39.3529 105.035 39.0124 105.314 38.724C105.593 38.4356 105.921 38.2072 106.305 38.039C106.686 37.8707 107.107 37.7866 107.564 37.7866C108.102 37.7866 108.564 37.8868 108.952 38.0951C109.337 38.2994 109.657 38.5718 109.903 38.9082C110.15 39.2447 110.332 39.6333 110.45 40.0699C110.567 40.5066 110.624 40.9592 110.624 41.4319H105.674C105.682 41.7083 105.743 41.9607 105.856 42.193C105.969 42.4253 106.119 42.6256 106.309 42.7939C106.5 42.9621 106.714 43.0983 106.957 43.1944C107.2 43.2946 107.455 43.3427 107.726 43.3427C108.256 43.3427 108.693 43.2545 109.033 43.0743C109.373 42.898 109.62 42.7218 109.774 42.5535L110.458 43.2625ZM109.369 40.5306C109.333 40.0499 109.163 39.6413 108.855 39.3048C108.548 38.9683 108.119 38.7961 107.56 38.7961C107.273 38.7961 107.014 38.8442 106.783 38.9443C106.552 39.0444 106.358 39.1726 106.196 39.3329C106.034 39.4931 105.909 39.6774 105.82 39.8857C105.731 40.094 105.682 40.3103 105.67 40.5346H109.369V40.5306Z" fill="white"/>
<path d="M119.852 43.3187C119.573 43.6311 119.229 43.8795 118.82 44.0717C118.411 44.264 117.937 44.3602 117.399 44.3602C116.897 44.3602 116.44 44.276 116.031 44.1118C115.622 43.9476 115.278 43.7192 114.995 43.4308C114.712 43.1424 114.493 42.7939 114.343 42.3893C114.19 41.9847 114.113 41.5401 114.113 41.0634C114.113 40.6107 114.194 40.1821 114.356 39.7815C114.518 39.381 114.744 39.0325 115.036 38.736C115.327 38.4396 115.675 38.2033 116.072 38.031C116.472 37.8588 116.914 37.7706 117.399 37.7706C117.929 37.7706 118.395 37.8628 118.8 38.051C119.204 38.2393 119.548 38.4917 119.836 38.8121L119.042 39.5732C118.852 39.3409 118.625 39.1606 118.354 39.0244C118.083 38.8882 117.767 38.8242 117.399 38.8242C117.075 38.8242 116.788 38.8842 116.529 39.0044C116.27 39.1246 116.055 39.2888 115.881 39.4971C115.707 39.7054 115.57 39.9458 115.477 40.2182C115.384 40.4906 115.335 40.771 115.335 41.0674C115.335 41.3518 115.384 41.6282 115.477 41.9006C115.57 42.173 115.707 42.4133 115.881 42.6216C116.055 42.8299 116.274 42.9982 116.529 43.1224C116.784 43.2466 117.075 43.3106 117.399 43.3106C117.767 43.3106 118.099 43.2425 118.391 43.1023C118.682 42.9621 118.925 42.7819 119.111 42.5495L119.852 43.3187Z" fill="white"/>
<path d="M124.972 43.4228C124.737 43.7352 124.429 43.9636 124.049 44.1158C123.668 44.268 123.276 44.3441 122.871 44.3441C122.612 44.3441 122.353 44.3121 122.094 44.244C121.839 44.1759 121.604 44.0677 121.394 43.9115C121.183 43.7553 121.013 43.555 120.88 43.3106C120.75 43.0663 120.686 42.7658 120.686 42.4093C120.686 41.7404 120.92 41.2076 121.394 40.807C121.867 40.4064 122.547 40.2061 123.434 40.2061C123.575 40.2061 123.729 40.2102 123.891 40.2182C124.053 40.2262 124.207 40.2342 124.348 40.2462C124.494 40.2542 124.62 40.2622 124.725 40.2742C124.834 40.2823 124.911 40.2903 124.955 40.3023V40.074C124.955 39.6133 124.814 39.2808 124.53 39.0805C124.247 38.8802 123.863 38.7801 123.377 38.7801C122.899 38.7801 122.523 38.8442 122.244 38.9724C121.964 39.1005 121.73 39.2327 121.544 39.3649L120.977 38.5517C121.086 38.4636 121.216 38.3755 121.37 38.2834C121.523 38.1952 121.701 38.1111 121.908 38.035C122.114 37.9589 122.349 37.8988 122.608 37.8467C122.867 37.7987 123.171 37.7746 123.511 37.7746C124.32 37.7746 124.955 37.9669 125.417 38.3555C125.878 38.744 126.109 39.2928 126.109 40.0018V43.6191C126.109 43.6912 126.109 43.7673 126.109 43.8514C126.109 43.9355 126.113 44.0397 126.121 44.1639H124.988L124.972 43.4228ZM124.959 41.2356C124.923 41.2276 124.854 41.2156 124.749 41.2036C124.644 41.1916 124.526 41.1796 124.393 41.1715C124.259 41.1635 124.114 41.1555 123.96 41.1435C123.806 41.1355 123.66 41.1315 123.515 41.1315C123.175 41.1315 122.895 41.1715 122.685 41.2517C122.474 41.3318 122.309 41.4319 122.187 41.5521C122.066 41.6723 121.981 41.8045 121.936 41.9527C121.892 42.1009 121.867 42.2411 121.867 42.3733C121.867 42.7098 121.985 42.9661 122.219 43.1424C122.454 43.3146 122.778 43.4028 123.191 43.4028C123.426 43.4028 123.648 43.3627 123.859 43.2826C124.069 43.2025 124.255 43.0943 124.417 42.9621C124.579 42.8299 124.709 42.6737 124.81 42.4935C124.907 42.3172 124.959 42.1329 124.959 41.9447V41.2356Z" fill="white"/>
<path d="M127.744 44.1719V38.5678C127.744 38.5037 127.744 38.4356 127.744 38.3554C127.744 38.2753 127.74 38.1471 127.732 37.9669H128.889L128.93 38.9683C129.003 38.8602 129.096 38.744 129.213 38.6158C129.331 38.4876 129.472 38.3675 129.638 38.2633C129.804 38.1552 129.998 38.067 130.217 37.9909C130.436 37.9148 130.69 37.8788 130.978 37.8788C131.111 37.8788 131.237 37.8868 131.35 37.9068C131.464 37.9228 131.569 37.9509 131.666 37.9869L131.395 39.1085C131.233 39.0444 131.026 39.0164 130.775 39.0164C130.516 39.0164 130.274 39.0645 130.055 39.1646C129.837 39.2648 129.642 39.397 129.48 39.5732C129.318 39.7495 129.189 39.9498 129.096 40.1781C129.003 40.4104 128.954 40.6548 128.954 40.9111V44.1799H127.744V44.1719Z" fill="white"/>
<path d="M132.621 44.1719V38.5678C132.621 38.5037 132.621 38.4356 132.621 38.3554C132.621 38.2753 132.617 38.1471 132.609 37.9669H133.766L133.807 38.9683C133.88 38.8602 133.973 38.744 134.09 38.6158C134.208 38.4876 134.349 38.3675 134.515 38.2633C134.681 38.1552 134.875 38.067 135.094 37.9909C135.312 37.9148 135.567 37.8788 135.855 37.8788C135.988 37.8788 136.114 37.8868 136.227 37.9068C136.34 37.9228 136.446 37.9509 136.543 37.9869L136.272 39.1085C136.11 39.0444 135.903 39.0164 135.652 39.0164C135.393 39.0164 135.151 39.0645 134.932 39.1646C134.713 39.2648 134.519 39.397 134.357 39.5732C134.195 39.7495 134.066 39.9498 133.973 40.1781C133.88 40.4104 133.831 40.6548 133.831 40.9111V44.1799H132.621V44.1719Z" fill="white"/>
<path d="M140.294 44.3562C139.809 44.3562 139.363 44.268 138.959 44.0958C138.554 43.9235 138.206 43.6832 137.915 43.3827C137.623 43.0823 137.392 42.7298 137.227 42.3372C137.061 41.9407 136.976 41.516 136.976 41.0634C136.976 40.6107 137.061 40.1861 137.227 39.7896C137.392 39.393 137.623 39.0445 137.915 38.744C138.206 38.4436 138.554 38.2033 138.959 38.031C139.363 37.8588 139.809 37.7706 140.294 37.7706C140.772 37.7706 141.209 37.8588 141.614 38.031C142.018 38.2033 142.371 38.4436 142.666 38.744C142.961 39.0445 143.192 39.397 143.358 39.7896C143.524 40.1861 143.609 40.6107 143.609 41.0634C143.609 41.516 143.524 41.9407 143.358 42.3372C143.192 42.7338 142.961 43.0823 142.666 43.3827C142.371 43.6832 142.018 43.9235 141.614 44.0958C141.209 44.268 140.768 44.3562 140.294 44.3562ZM140.294 43.3187C140.618 43.3187 140.91 43.2546 141.173 43.1264C141.432 42.9982 141.654 42.8299 141.832 42.6176C142.01 42.4093 142.148 42.169 142.245 41.8966C142.338 41.6242 142.387 41.3478 142.387 41.0634C142.387 40.787 142.338 40.5146 142.245 40.2422C142.152 39.9698 142.01 39.7295 141.828 39.5172C141.642 39.3048 141.424 39.1326 141.169 39.0044C140.914 38.8762 140.622 38.8121 140.298 38.8121C139.975 38.8121 139.683 38.8762 139.424 39.0044C139.165 39.1326 138.943 39.3008 138.764 39.5131C138.586 39.7255 138.449 39.9618 138.352 40.2342C138.259 40.5066 138.21 40.783 138.21 41.0674C138.21 41.3518 138.259 41.6282 138.352 41.8926C138.445 42.157 138.586 42.4013 138.769 42.6136C138.955 42.8259 139.173 42.9982 139.428 43.1264C139.679 43.2546 139.971 43.3187 140.294 43.3187Z" fill="white"/>
<path d="M145.143 42.6096C145.366 42.8339 145.637 43.0102 145.953 43.1424C146.268 43.2746 146.633 43.3427 147.045 43.3427C147.45 43.3427 147.786 43.2786 148.057 43.1504C148.328 43.0222 148.462 42.8179 148.462 42.5455C148.462 42.4013 148.434 42.2811 148.373 42.177C148.316 42.0769 148.215 41.9847 148.077 41.9046C147.94 41.8245 147.754 41.7524 147.523 41.6843C147.292 41.6162 147.009 41.5441 146.665 41.464C146.422 41.4119 146.183 41.3398 145.945 41.2517C145.706 41.1635 145.491 41.0434 145.305 40.8991C145.115 40.7509 144.965 40.5747 144.848 40.3664C144.73 40.1581 144.674 39.9057 144.674 39.6133C144.674 39.3129 144.743 39.0445 144.884 38.8201C145.022 38.5918 145.208 38.4035 145.443 38.2473C145.677 38.0911 145.941 37.9749 146.232 37.8948C146.523 37.8147 146.827 37.7746 147.143 37.7746C147.673 37.7746 148.13 37.8427 148.511 37.9829C148.891 38.1191 149.227 38.3154 149.514 38.5638L148.855 39.393C148.664 39.2247 148.43 39.0805 148.146 38.9643C147.863 38.8482 147.535 38.7921 147.155 38.7921C146.766 38.7921 146.459 38.8562 146.224 38.9804C145.989 39.1045 145.872 39.3088 145.872 39.5933C145.872 39.8616 146.026 40.0579 146.337 40.1861C146.649 40.3143 147.054 40.4385 147.555 40.5546C147.851 40.6268 148.13 40.7069 148.385 40.803C148.64 40.8991 148.867 41.0153 149.061 41.1635C149.255 41.3117 149.405 41.492 149.518 41.7043C149.632 41.9166 149.688 42.177 149.688 42.4774C149.688 42.7899 149.615 43.0623 149.474 43.2986C149.328 43.535 149.138 43.7312 148.895 43.8915C148.652 44.0517 148.373 44.1719 148.061 44.252C147.746 44.3321 147.418 44.3722 147.078 44.3722C145.892 44.3722 145.002 44.0557 144.411 43.4268L145.143 42.6096Z" fill="white"/>
</g>
<defs>
<clipPath id="clip0">
<rect width="150" height="47" fill="white"/>
</clipPath>
</defs>
</svg>
