<svg xmlns="http://www.w3.org/2000/svg" width="1043" height="708" fill="none"><path stroke="#3E74FF" stroke-width="3" d="M849 338.917c0-181.149-146.851-328-328-328s-328 146.851-328 328"/><path fill="url(#a)" fill-rule="evenodd" d="M478.219 43.027c19.174-2.858 38.209-3.757 57.073-2.907l2.852 3.237-12.548 2.517-4.814.933-.771 2.053-5.321 1.87-7.626-.586-7.925 4.628-5.783.216 4.227-3.43-7.604-1.883 2.152-2.906 9.289 1.631 5.5-2.112 6.214 1.228 9.736-4.036-5.38-2.86-7.468.467 3.201 1.246-6.111.91-7.329-1.492-4.636.691 1.937 1.435-10.419.906-7.235-.86c-9.334.96-18.51 2.975-27.108 5.98l-4.407 3.672 3.349.793-3.29 3.937-14.516.872-5.387 5.757 7.32-.014 12.045-5.888 17.089-3.84 9.611-4.879 10.356-1.328.682 3.13L481 54.46l-4.088 1.47.283 1.897 9.028-1.56 2.054.77-12.574 8.121.637 5.721-7.912 1.826-.202 1.538 8.428-1.256-1.205 4.918-11.749 4.983-3.479 2.672 6.474 4.42-8.082 3.575c-1.022.368-1.412.641-2.403 1.22l-1.556-3.215-7.348-4.505 14.098-5.118 4.259-3.22-12.221 1.822-9.59-6.54-3.541 2.25-11.893 1.127-2.583 1.462 13.768-.113.44 2.95-4.192-.668-6.693 4.23 3.381 1.003 1.291 4.331-15.362 5.306-1.054.157-3.242-2.963 8.316-4.902-17.035 2.755-6.271 4.166-12.853 1.915-14.111 7.92-19.635 11.328-13.444 3.727-4.379 8.192-16.531 16.25 2.756-7.519 10.229-12.295-8.85 1.319.488-3.95c-15.222 13.47-27.212 28.397-36.727 44.033l1.842.802 6.329-9.56 4.909-.301-10.946 13.264-9.681 13.076 3.578 3.774-4.298 11.627-6.521 12.604-2.729 12.039 4.29-3.009 3.031 2.995-.384 6.089 2.815-2.789 6.979-6.641 7.173.438-.982 2.085-5.029 5.273.26 3.193 4.81-6.749 5.909.628-1.206 4.918 4.802 1.87.292 3.403 3.559.761 1.013-1.874 6.855 2.64-2.33 3.148 3.394 8.326.229 2.982 2.686.676 3.184 8.358-4.102 4.273 5.713 7.98 6.119.596 9.466 15.822.795 6.775 4.698-.27-3.379 9.12-6.522 2.48-2.734 6.224-7.164 1.068 3.412 1.214 10.472-1.991 3.632 2.689-4.492 4.547 5.963-.458 6.298.354 4.134 6.061 3.381 1.004 2.291 5.26 5.698.658 5.484 4.999 1.928-.072 7.666 2.304 6.601 15.387 3.192-.26 3.569 2.268 1.633 10.958-1.985 5.466.198 2.771-6.231 5.883-4.554 4.125-2.161 1.399-4.702 4.578-2.676.83-3.532 3.758-.6 10.429-3.293 8.246-2.161 1.399-.784 4.856-.425 4.371-6.105 6.726.166 2.561-4.016 3.399-8.814-2.78-2.447 3.812-7.573-1.672-6.482 4.198-.752 5.066.471 3.161-.626 5.91-3.564 3.546-1.806 5.224-4.828 3.735-2.164 5.708-2.089 3.328-7.191-3.452.027 4.519 1.799 3.394.722 4.847-2.066 2.031-6.129-2.102 1.269 5.627-2.528.377-4.031-3.923.472 3.161 4.542 8.801.66 4.425-.793 3.35 1.175 4.994 7.98 4.411 1.194 8.008 5.905 4.936 1.744 4.479 4.6 3.407 3.515 3.353.673 1.623-2.896-.645-14.343-15.31-8.722-12.271-7.492-8.361-8.704-19.382-9.614-15.369-5.59-27.386-3.193-9.864-2.571-46.145-3.527-25.108-5.112-8.286-3.158-13.961-1.097-56.49 3.111-3.695-.534-3.582 4.92-13.227 4.913-4.61 10.007-23.894 2.577-7.277-.722-4.847-2.91 2.157.409 2.739-2.519 1.884-1.405-7.977 3.141-13.608 5.7-13.774-1.556-3.215.995-4.887 3.961-12.438-1.251-2.614C320.73 104.845 392.254 55.84 478.219 43.027m62.077-2.575c21.308 1.347 41.876 4.959 61.916 10.804l-1.676 1.757 1.515 1.498-3.563 3.547-5.393-.058-.475 1.148 3.255.16-.834 1.633-5.698-.659-.422.063-.623 1.6-1.918 1.58-4.044-1.121-2.434 1.009 5.823 1.501-8.49.835-10.468-2.317-10.051 1.93-6.192-2.525-9.902 1.476-15.596 6.633-1.968-1.645 3.299-2.43-8.607 1.498-.314-2.107 7.118-8.6 15.595-6.634 6.667 1.376 12.497-5.74-1.484-1.287-4.151 1.05-1.421-.865 5.437-2.534-4.012-.91-4.815.933-6.572-.744zm141.706 47.593c66.669 44.13 115.186 115.308 127.907 200.653a288 288 0 0 1 2.756 27.162l-3.677-10.222-1.902-5.533-1.099-7.375-6.375 2.027-3.82-3.955.699-3.981-2.148-1.403-.9 5.519-7.125-7.339-6.22-17.167-3.11 3.695 2.588 14.477 6.389 5.295.835 8.492.189 1.264 2.609 3.058 2.636-2.547.69-5.488 2.317-.346 1.113 4.573 5.196 7.411.281 16.33-6.673 17.366-4.196 3.641-7.153 12.698-7.598 3.933-7.262 4.745-1.977-3.152.311-18.141-3.733-19.262-4.766-5.967.699-3.981-3.875-12.994-4.125-4.555-6.745-19.243-3.372.503-5.318-12.563-.143 6.268 11.983 28.372 1.13 7.586 5.682 7.769 5.792 35.972 2.225 9.147 3.207 7.061.552 6.596 10.472-1.992 5.5-2.113 1.632.834-1.913 7.394-4.575 15.545-11.994 19.236-19.145 17.502-11.743 10.798-7.52 21.8.203 8.586-9.372 19.491-9.605 10.695-15.681 7.507-7.472 4.776-1.196 6.425-7.006 12.246-13.202 3.906-15.433 13.502-34.616 14.853-11.943-2.097-14.063 1.019 1.209-9.227 4.438-3.462 3.172-13.398-1.216-6.711 8.178-27.5-.088-19.373 2.41-9.838 16.308-13.416 1.958-34.543-6.883-17.283 6.7-12.847.631-10.218-9.609-9.554-.031-.211-13.854-9.136-28.431 1.438-6.559-3.546-22.462-7.638-5.636-10.361-12.446-5.469-1.329-10.357-5.694-4.968-1.84-15.235-6.869-9.962-.153-5.362-1.292-4.331 8.476-8.157 6.826-12.003-1.278-7.134 3.746-8.098 5.648-2.565 6.163-12.12 23.148-18.098 8.89.398 4.096-10.089 8.777-3.247 9.234-7.407 7.101-1.49 16.314 2.523 28.1 3.566 5.488.69 9.899 2.833 3.234 11.581-1.963 4.17 2.87 6.25 12.087 5.953 2.888 9.263 9.859 1.115 3.304 3.385 2.95-.44 2.029-8.057 7.859-.741 7.049 9.72 7.446.829 5.094 5.272 8.988-3.278 3.399 4.017 1.968 1.645 3.227-4.358 1.795-16.854-1.498-8.609-4.959-2.923.377 2.529.157 1.054-5.057.753-1.206-5.205-5.425-.269-.582 3.318-5.528-2.407-5.444-13.405-5.779-4.093 2.532-4.686-3.748-2.026-4.9 1.807-3.327-2.089 1.028 5.448 5.685 3.46.515.57-1.362 3.865-.632.094-6.685-4.389-.009-1.506-7.326-5.801-2.068-8.093-3.323-6.398-11.231-8.881-6.829-8.245-1.896.283 1.637 6.649 7.309 12.912 12.213 6.796.05 3.224-3.874-2.869-3.192.26 1.964 5.954-2.101 6.13-.113-3.646-3.153-8.146-16.629-14.754-1.351-9.061-5.949-2.345-9.41 3.341-8.159-4.169-2.457 2.305.418 4.246-9.208 1.804-3.196 4.569.911 6.111-12.31 7.004-7.424-2.124-6.11.911-2.87-6.25-9.472 2.92.922-6.816-1.838-5.111 8.977-14.909-2.373-8.693 10.567-1.36 6.917 3.062 10.774 2.917 3.513-6.77-2.184-7.429-8.119-2.452.479-5.457 1.582-2.39 7.245 2.367 2.963-3.242 5.465 1.986 5.397-4.251 7.463-6.283 5.963-.458.824-3.138-4.197-6.483 4.532-2.83 5.345 6.958.515.57 1.309-2.78-8.08-10.859-6.46 2.902-4.093-4.345 1.192-2.116-2.946-3.869 1.237-4.708 5.868-1.09 6.22-17.514 4.16.457 1.431 2.372 5.666.447 3.314 4.892.063.421 3.402-.292 4.358 3.228 3.824-.354 11.505 9.271-.897 1.21-6.401-2.492 5.788 5.6.578.99.96-.789 4.295 2.807-3.587-5.282 1.497-1.515-7.031-6.707 6.317 3.366-1.955-4.447-6.263-4.452-6.842-5.442 1.327.233 14.8 11.149 2.623.255zm56.381 145.614-1.223 1.906-4.066.175.018 3.013 4.412 2.143 2.343-5.95zm-42.739-17.97 4.65 6.631.179-.243 3.268-2.641-6.273-5.958zm11.702 12.042-.349 1.99 3.147 2.332 2.318-.346-.915-1.802zm-37.839-19.778-2.9 3.663 10.065 5.393-.87-4.394-.041-1.717zm-18.271-17.095 1.615 7.945 3.519-.955-.063-.422-.14-8.165-1.959-.138-3.066 1.103zm-32.416-88.872.61 1.202.453.148.515.569.422-.063.685-1.179.149-.453-.853-1.381zm-11.527-7.975-.538.727.422-.063c.031.21.031.21.242.179l1.453 1.076 2.214-2.484-1.422-.865zm4.149 13.383-1.91 3.085 4.085 2.838-2.699 2.126 6.528 3.335.449 4.457-6.541-.533-1.057 4.465 4.075 1.332-6.639 3.143.261 3.193 19.38 1.419 3.967-6.623-5.421-4.577-.094-.632-.113-3.645-.789-.96-3.789-3.743-.063-.422-.376-2.528-1.547-1.709c.148-.452.116-.663.475-1.147l.053-1.086c-.062-.421-.031-.21-.304-.6l-3.453-2.932-3.95-.488zm-9.674 4.458-2.246 2.274-3.16.471-.838 5.941 3.865 1.362-.179.242-4.689 1.776.596 4.004 11.8-1.759-.037-6.026 2.246-2.273-.063-.421-1.83-3.605zm141.944 368.52-12.371 16.707-7.585 1.131-14.472 22.837-4.649 3.493-10.587 12.779 2.484 2.215 4.532-2.83 5.384-1.448 26.813-29.631c.686-1.179.328-.695 1.318-1.274l4.464-9.066 4.563-2.619.085-.874 2.581-11.586-2.528.377zm9.36-298.446-2.165 5.708.628 4.214 3.6 2.479 1.534 4.511 7.426 12.248.288 7.712 9.161 15.221 3.972-.807-.063-.422-1.951-8.756-.274-.39-6.08-9.003-.499-7.68-.063-.422-11.066-16.445-.377-2.528 1.802-.915-2.987-5.586zm-5.888 22.634-2.098 1.82-17.512-6.221-2.035 2.242-6.867.162-.063-.422-7.798-8.962 4.643-9.308.152-4.762 6.183 1.017 3.995 8.021.242.18 4.604-.902-4.565-7.505 6.953-1.037.893 3.098-2.227 5.287 6.411 3.999zM661.516 97.992l2.883 3.447-.331 5.004-3.833-1.152-.986 6.394.633-.094 6.913 7.37-2.339 1.641.062.422 3.462 4.438-2.698 2.126-1.054.157-6.604-.954-2.658 3.842.148-.453-2.103-3.994-2.34 1.641 1.144 4.784 8.733-.656.126.843 2.43 3.3.421-.063 8.818-1.529c.843-.126.874.085 1.421.865l1.211.896.843-.125 2.277-2.063c.381-1.78.179-.242.116-.664l-4.407-6.451.99-.579 6.107 3.398.717-.968-.094-.632-4.031-3.923.381-1.78 6.657-.131.421-.063 3.277-1.134-5.075-2.26-7.374 1.1-.422.062-2.842-1.73-.422.063-3.178-2.542-.063-.422-.261-3.192-.273-.39-3.937-3.29 3.209-7.372-3.452-2.932zM309.94 178.4l.028 4.52-3.613.323-.35 1.991 3.981.699-1.456 3.233 1.569.412 1.488-3.022 5.591 2.829 1.192-2.117-.032-.211-1.7-7.07-2.95.439-1.009-2.434zm-2.074-24.032-1.501 5.824 1.905 1.224-2.823 11.407 6.931.259 1.331-4.075-3.224-10.075.613-3.107-.883-1.592zm271.67-81.853-3.309.924 3.368 3.806-2.497.587-.265 1.117 8.814 2.779 6.962.47 3.444 1.426 3.51-2.462-3.865-1.363-.651-2.919-4.949-1.416-3.277 1.135-.453-.148z" clip-rule="evenodd"/><path fill="#E1EDFF" d="M272.426 305.582a2.457 2.457 0 1 0-.001-4.913 2.457 2.457 0 0 0 .001 4.913m446.82-43.014a2.455 2.455 0 1 0 .002-4.91 2.455 2.455 0 0 0-.002 4.91m-103.128-91.672a2.455 2.455 0 1 0 0-4.91 2.455 2.455 0 0 0 0 4.91m112.951 224.266a2.455 2.455 0 1 0 0-4.91 2.455 2.455 0 0 0 0 4.91m-1.637-65.477a2.455 2.455 0 1 0 0-4.91 2.455 2.455 0 0 0 0 4.91m27.828-34.379a2.456 2.456 0 1 0 0-4.911 2.456 2.456 0 0 0 0 4.911m-34.375 73.664a2.456 2.456 0 1 0 0-4.911 2.456 2.456 0 0 0 0 4.911m26.192-147.328a2.455 2.455 0 1 0 0-4.91 2.455 2.455 0 0 0 0 4.91M565.373 352.601a2.455 2.455 0 1 0 .002-4.91 2.455 2.455 0 0 0-.002 4.91m-230.74-50.295a2.456 2.456 0 1 0 0-4.911 2.456 2.456 0 0 0 0 4.911m-21.281-21.281a2.455 2.455 0 1 0 0-4.91 2.455 2.455 0 0 0 0 4.91m443.547 155.059a2.456 2.456 0 1 0-.001-4.911 2.456 2.456 0 0 0 .001 4.911M542.455 324.773a2.455 2.455 0 1 0 .002-4.91 2.455 2.455 0 0 0-.002 4.91M305.166 429.99a2.455 2.455 0 1 0 .002-4.91 2.455 2.455 0 0 0-.002 4.91m-21.281-47.473a2.456 2.456 0 1 0 0-4.911 2.456 2.456 0 0 0 0 4.911m8.186 78.575a2.456 2.456 0 1 0-.001-4.911 2.456 2.456 0 0 0 .001 4.911m279.847-288.557a2.456 2.456 0 1 0 0-4.912 2.456 2.456 0 0 0 0 4.912m-294.58 87.209a2.456 2.456 0 1 0 0-4.912 2.456 2.456 0 0 0 0 4.912m49.11 147.328a2.455 2.455 0 1 0 0-4.91 2.455 2.455 0 0 0 0 4.91m373.156-28.281a2.456 2.456 0 1 0-.001-4.911 2.456 2.456 0 0 0 .001 4.911m8.185 83.486a2.455 2.455 0 1 0 .002-4.91 2.455 2.455 0 0 0-.002 4.91m-31.101-235.724a2.456 2.456 0 1 0-.001-4.911 2.456 2.456 0 0 0 .001 4.911m34.373 22.919a2.455 2.455 0 1 0 0-4.91 2.455 2.455 0 0 0 0 4.91m54.023-21.281a2.456 2.456 0 1 0 0-4.911 2.456 2.456 0 0 0 0 4.911M621.032 202a2.456 2.456 0 1 0-.001-4.911 2.456 2.456 0 0 0 .001 4.911m-45.838 54.019a2.455 2.455 0 1 0 0-4.91 2.455 2.455 0 0 0 0 4.91"/><path fill="#E1EDFF" d="M715.975 262.568a2.455 2.455 0 1 0 0-4.91 2.455 2.455 0 0 0 0 4.91M347.727 425.08a2.455 2.455 0 1 0 0-4.91 2.455 2.455 0 0 0 0 4.91m6.547-18.008a2.455 2.455 0 1 0 0-4.91 2.455 2.455 0 0 0 0 4.91m34.377-73.664a2.455 2.455 0 1 0 0-4.91 2.455 2.455 0 0 0 0 4.91M282.248 438.174a2.456 2.456 0 1 0 0-4.912 2.456 2.456 0 0 0 0 4.912m-14.732-137.502a2.457 2.457 0 1 0-.001-4.913 2.457 2.457 0 0 0 .001 4.913m-4.912 60.564a2.455 2.455 0 1 0 0-4.91 2.455 2.455 0 0 0 0 4.91m60.568 81.852a2.457 2.457 0 1 0-.001-4.913 2.457 2.457 0 0 0 .001 4.913m-65.478-121.137a2.455 2.455 0 1 0 0-4.91 2.455 2.455 0 0 0 0 4.91m-3.274-31.102a2.456 2.456 0 1 0 0-4.911 2.456 2.456 0 0 0 0 4.911m108.039 109.676a2.456 2.456 0 1 0 0-4.911 2.456 2.456 0 0 0 0 4.911m11.459-1.639a2.456 2.456 0 1 0 0-4.911 2.456 2.456 0 0 0 0 4.911m-85.123-117.861a2.456 2.456 0 1 0 0-4.911 2.456 2.456 0 0 0 0 4.911m477.924 2.822a2.456 2.456 0 1 0 0-4.911 2.456 2.456 0 0 0 0 4.911m-155.51 67.118a2.457 2.457 0 1 0-.001-4.913 2.457 2.457 0 0 0 .001 4.913m9.823-166.973a2.455 2.455 0 1 0 0-4.91 2.455 2.455 0 0 0 0 4.91m73.662 13.098a2.456 2.456 0 1 0-.001-4.911 2.456 2.456 0 0 0 .001 4.911m22.918 57.293a2.456 2.456 0 1 0-.001-4.911 2.456 2.456 0 0 0 .001 4.911"/><path fill="#E1EDFF" d="M714.336 260.931a2.456 2.456 0 1 0 0-4.911 2.456 2.456 0 0 0 0 4.911m-31.101-103.132a2.456 2.456 0 1 0-.001-4.911 2.456 2.456 0 0 0 .001 4.911m63.842 99.855a2.455 2.455 0 1 0 0-4.91 2.455 2.455 0 0 0 0 4.91m-44.2 217.719a2.457 2.457 0 1 0-.001-4.913 2.457 2.457 0 0 0 .001 4.913m0-294.654a2.457 2.457 0 1 0-.001-4.913 2.457 2.457 0 0 0 .001 4.913m50.746 108.041a2.456 2.456 0 1 0 0-4.912 2.456 2.456 0 0 0 0 4.912m-99.855-85.124a2.455 2.455 0 1 0 0-4.91 2.455 2.455 0 0 0 0 4.91m86.76 130.958a2.456 2.456 0 1 0-.001-4.911 2.456 2.456 0 0 0 .001 4.911m-72.026-126.045a2.457 2.457 0 1 0-.001-4.913 2.457 2.457 0 0 0 .001 4.913m27.828 16.369a2.456 2.456 0 1 0 0-4.912 2.456 2.456 0 0 0 0 4.912m50.747 3.273a2.455 2.455 0 1 0 0-4.91 2.455 2.455 0 0 0 0 4.91m-91.67-36.013a2.456 2.456 0 1 0-.001-4.911 2.456 2.456 0 0 0 .001 4.911m4.91 299.566a2.455 2.455 0 1 0 0-4.91 2.455 2.455 0 0 0 0 4.91m-90.033-257.006a2.455 2.455 0 1 0 0-4.91 2.455 2.455 0 0 0 0 4.91m68.753-42.56a2.456 2.456 0 1 0 0-4.912 2.456 2.456 0 0 0 0 4.912m86.76-39.288a2.455 2.455 0 1 0 0-4.91 2.455 2.455 0 0 0 0 4.91m-81.849 248.819a2.456 2.456 0 1 0-.001-4.911 2.456 2.456 0 0 0 .001 4.911m-36.012-178.43a2.455 2.455 0 1 0 0-4.91 2.455 2.455 0 0 0 0 4.91m72.023 14.734a2.456 2.456 0 1 0 0-4.911 2.456 2.456 0 0 0 0 4.911m-65.478-60.566a2.455 2.455 0 1 0 0-4.91 2.455 2.455 0 0 0 0 4.91m-24.553-27.83a2.456 2.456 0 1 0 0-4.911 2.456 2.456 0 0 0 0 4.911m44.197 13.096a2.457 2.457 0 1 0-.001-4.913 2.457 2.457 0 0 0 .001 4.913m42.563 55.656a2.455 2.455 0 1 0 0-4.91 2.455 2.455 0 0 0 0 4.91m-6.549-47.473a2.456 2.456 0 1 0 0-4.911 2.456 2.456 0 0 0 0 4.911m-40.924 11.461a2.456 2.456 0 1 0 0-4.911 2.456 2.456 0 0 0 0 4.911m14.733-13.097a2.456 2.456 0 1 0-.001-4.911 2.456 2.456 0 0 0 .001 4.911m-1.639-16.372a2.455 2.455 0 1 0 0-4.91 2.455 2.455 0 0 0 0 4.91m-13.094 42.563a2.456 2.456 0 1 0 0-4.912 2.456 2.456 0 0 0 0 4.912M593.2 164.349a2.455 2.455 0 1 0 0-4.91 2.455 2.455 0 0 0 0 4.91m137.507 222.629a2.455 2.455 0 1 0 .002-4.91 2.455 2.455 0 0 0-.002 4.91m39.287-99.855a2.457 2.457 0 1 0-.001-4.913 2.457 2.457 0 0 0 .001 4.913m-11.46-14.733a2.455 2.455 0 1 0 0-4.91 2.455 2.455 0 0 0 0 4.91m-178.43-108.041a2.455 2.455 0 1 0 0-4.91 2.455 2.455 0 0 0 0 4.91m106.406 44.2a2.457 2.457 0 1 0-.001-4.913 2.457 2.457 0 0 0 .001 4.913m-68.754 6.546a2.456 2.456 0 1 0 0-4.911 2.456 2.456 0 0 0 0 4.911m4.91-39.287a2.455 2.455 0 1 0 .002-4.91 2.455 2.455 0 0 0-.002 4.91m70.389 286.469a2.456 2.456 0 1 0 0-4.911 2.456 2.456 0 0 0 0 4.911M588.289 228.191a2.455 2.455 0 1 0 .002-4.91 2.455 2.455 0 0 0-.002 4.91m40.926-24.555a2.456 2.456 0 1 0 0-4.911 2.456 2.456 0 0 0 0 4.911m18.008-21.279a2.455 2.455 0 1 0 0-4.91 2.455 2.455 0 0 0 0 4.91m-47.473-6.549a2.456 2.456 0 1 0 0-4.911 2.456 2.456 0 0 0 0 4.911m9.821 11.459a2.455 2.455 0 1 0 0-4.91 2.455 2.455 0 0 0 0 4.91m1.638 55.657a2.457 2.457 0 1 0-.001-4.913 2.457 2.457 0 0 0 .001 4.913m76.936 39.289a2.456 2.456 0 1 0-.001-4.911 2.456 2.456 0 0 0 .001 4.911m-435.363 46.285a2.456 2.456 0 1 0-.001-4.911 2.456 2.456 0 0 0 .001 4.911m94.945 83.484a2.455 2.455 0 1 0 0-4.91 2.455 2.455 0 0 0 0 4.91m11.459-19.64a2.456 2.456 0 1 0-.001-4.911 2.456 2.456 0 0 0 .001 4.911m-1.637-18.008a2.457 2.457 0 1 0-.001-4.913 2.457 2.457 0 0 0 .001 4.913m-1.636 40.924a2.456 2.456 0 1 0-.001-4.911 2.456 2.456 0 0 0 .001 4.911m3.273-14.733a2.455 2.455 0 1 0 0-4.91 2.455 2.455 0 0 0 0 4.91"/><path fill="#E1EDFF" d="M355.913 413.623a2.456 2.456 0 1 0-.001-4.911 2.456 2.456 0 0 0 .001 4.911m-.001-88.399a2.455 2.455 0 1 0 .002-4.91 2.455 2.455 0 0 0-.002 4.91m3.274 72.028a2.456 2.456 0 1 0-.001-4.911 2.456 2.456 0 0 0 .001 4.911"/><path fill="#E1EDFF" d="M354.274 413.623a2.456 2.456 0 1 0-.001-4.911 2.456 2.456 0 0 0 .001 4.911m16.371-26.195a2.456 2.456 0 1 0-.001-4.911 2.456 2.456 0 0 0 .001 4.911m332.232 45.384a2.456 2.456 0 1 0 0-4.911 2.456 2.456 0 0 0 0 4.911m-350.238-42.111a2.456 2.456 0 1 0 0-4.912 2.456 2.456 0 0 0 0 4.912m1.635-14.731a2.455 2.455 0 1 0 0-4.91 2.455 2.455 0 0 0 0 4.91m-36.014-44.199a2.456 2.456 0 1 0 0-4.911 2.456 2.456 0 0 0 0 4.911m373.16-169.058a2.457 2.457 0 1 0-.001-4.913 2.457 2.457 0 0 0 .001 4.913M387.014 344.869a2.456 2.456 0 1 0 0-4.912 2.456 2.456 0 0 0 0 4.912M745.44 244.56a2.455 2.455 0 1 0 0-4.91 2.455 2.455 0 0 0 0 4.91M357.549 384.154a2.456 2.456 0 1 0 0-4.911 2.456 2.456 0 0 0 0 4.911m358.426-124.859a2.456 2.456 0 1 0-.001-4.911 2.456 2.456 0 0 0 .001 4.911"/><path fill="#E1EDFF" d="M354.274 410.347a2.455 2.455 0 1 0 0-4.91 2.455 2.455 0 0 0 0 4.91m245.476-56.109a2.456 2.456 0 1 0 0-4.911 2.456 2.456 0 0 0 0 4.911m34.375-111.314a2.457 2.457 0 1 0-.001-4.913 2.457 2.457 0 0 0 .001 4.913m94.944 57.293a2.456 2.456 0 1 0-.001-4.911 2.456 2.456 0 0 0 .001 4.911m22.92-34.375a2.456 2.456 0 1 0-.001-4.911 2.456 2.456 0 0 0 .001 4.911m8.185-29.465a2.457 2.457 0 1 0-.001-4.913 2.457 2.457 0 0 0 .001 4.913"/><path fill="#E1EDFF" d="M756.899 267.478a2.455 2.455 0 1 0 0-4.91 2.455 2.455 0 0 0 0 4.91m-11.459-4.91a2.455 2.455 0 1 0 0-4.91 2.455 2.455 0 0 0 0 4.91m-420.631 36.465a2.455 2.455 0 1 0 0-4.91 2.455 2.455 0 0 0 0 4.91m6.549 73.664a2.455 2.455 0 1 0 0-4.91 2.455 2.455 0 0 0 0 4.91m355.152 84.668a2.456 2.456 0 1 0 0-4.911 2.456 2.456 0 0 0 0 4.911m-68.754-253.729a2.456 2.456 0 1 0 0-4.911 2.456 2.456 0 0 0 0 4.911m39.287-11.458a2.457 2.457 0 1 0-.001-4.913 2.457 2.457 0 0 0 .001 4.913m-54.019 16.371a2.456 2.456 0 1 0-.001-4.911 2.456 2.456 0 0 0 .001 4.911m90.031-13.098a2.456 2.456 0 1 0 0-4.912 2.456 2.456 0 0 0 0 4.912m-29.465 0a2.456 2.456 0 1 0 0-4.912 2.456 2.456 0 0 0 0 4.912m-19.642 42.562a2.455 2.455 0 1 0 0-4.91 2.455 2.455 0 0 0 0 4.91m-1.639-16.371a2.455 2.455 0 1 0 0-4.91 2.455 2.455 0 0 0 0 4.91m-369.883 83.94a2.457 2.457 0 1 0-.001-4.913 2.457 2.457 0 0 0 .001 4.913m446.82-43.014a2.455 2.455 0 1 0 .002-4.91 2.455 2.455 0 0 0-.002 4.91m-103.128-91.672a2.455 2.455 0 1 0 0-4.91 2.455 2.455 0 0 0 0 4.91m112.951 224.266a2.455 2.455 0 1 0 0-4.91 2.455 2.455 0 0 0 0 4.91m-1.637-65.477a2.455 2.455 0 1 0 0-4.91 2.455 2.455 0 0 0 0 4.91m27.828-34.379a2.456 2.456 0 1 0 0-4.911 2.456 2.456 0 0 0 0 4.911m-34.375 73.664a2.456 2.456 0 1 0 0-4.911 2.456 2.456 0 0 0 0 4.911m26.192-147.328a2.455 2.455 0 1 0 0-4.91 2.455 2.455 0 0 0 0 4.91M565.373 352.601a2.455 2.455 0 1 0 .002-4.91 2.455 2.455 0 0 0-.002 4.91m-230.74-50.295a2.456 2.456 0 1 0 0-4.911 2.456 2.456 0 0 0 0 4.911m-21.281-21.281a2.455 2.455 0 1 0 0-4.91 2.455 2.455 0 0 0 0 4.91m443.547 155.059a2.456 2.456 0 1 0-.001-4.911 2.456 2.456 0 0 0 .001 4.911M542.455 324.773a2.455 2.455 0 1 0 .002-4.91 2.455 2.455 0 0 0-.002 4.91M305.166 429.99a2.455 2.455 0 1 0 .002-4.91 2.455 2.455 0 0 0-.002 4.91m-21.281-47.473a2.456 2.456 0 1 0 0-4.911 2.456 2.456 0 0 0 0 4.911m8.186 78.575a2.456 2.456 0 1 0-.001-4.911 2.456 2.456 0 0 0 .001 4.911m279.847-288.557a2.456 2.456 0 1 0 0-4.912 2.456 2.456 0 0 0 0 4.912m-294.58 87.209a2.456 2.456 0 1 0 0-4.912 2.456 2.456 0 0 0 0 4.912m49.11 147.328a2.455 2.455 0 1 0 0-4.91 2.455 2.455 0 0 0 0 4.91m373.156-28.281a2.456 2.456 0 1 0-.001-4.911 2.456 2.456 0 0 0 .001 4.911m8.185 83.486a2.455 2.455 0 1 0 .002-4.91 2.455 2.455 0 0 0-.002 4.91m-31.101-235.724a2.456 2.456 0 1 0-.001-4.911 2.456 2.456 0 0 0 .001 4.911m34.373 22.919a2.455 2.455 0 1 0 0-4.91 2.455 2.455 0 0 0 0 4.91m54.023-21.281a2.456 2.456 0 1 0 0-4.911 2.456 2.456 0 0 0 0 4.911"/><path fill="#E1EDFF" d="M621.032 202a2.456 2.456 0 1 0-.001-4.911 2.456 2.456 0 0 0 .001 4.911m-45.838 54.019a2.455 2.455 0 1 0 0-4.91 2.455 2.455 0 0 0 0 4.91m140.781 6.549a2.455 2.455 0 1 0 0-4.91 2.455 2.455 0 0 0 0 4.91M347.727 425.08a2.455 2.455 0 1 0 0-4.91 2.455 2.455 0 0 0 0 4.91m6.547-18.008a2.455 2.455 0 1 0 0-4.91 2.455 2.455 0 0 0 0 4.91m34.377-73.664a2.455 2.455 0 1 0 0-4.91 2.455 2.455 0 0 0 0 4.91M282.248 438.174a2.456 2.456 0 1 0 0-4.912 2.456 2.456 0 0 0 0 4.912m-14.732-137.502a2.457 2.457 0 1 0-.001-4.913 2.457 2.457 0 0 0 .001 4.913m-4.912 60.564a2.455 2.455 0 1 0 0-4.91 2.455 2.455 0 0 0 0 4.91m60.568 81.852a2.457 2.457 0 1 0-.001-4.913 2.457 2.457 0 0 0 .001 4.913m-65.478-121.137a2.455 2.455 0 1 0 0-4.91 2.455 2.455 0 0 0 0 4.91m-3.274-31.102a2.456 2.456 0 1 0 0-4.911 2.456 2.456 0 0 0 0 4.911m108.039 109.676a2.456 2.456 0 1 0 0-4.911 2.456 2.456 0 0 0 0 4.911m11.459-1.639a2.456 2.456 0 1 0 0-4.911 2.456 2.456 0 0 0 0 4.911m-85.123-117.861a2.456 2.456 0 1 0 0-4.911 2.456 2.456 0 0 0 0 4.911m477.924 2.822a2.456 2.456 0 1 0 0-4.911 2.456 2.456 0 0 0 0 4.911m-155.51 67.118a2.457 2.457 0 1 0-.001-4.913 2.457 2.457 0 0 0 .001 4.913m9.823-166.973a2.455 2.455 0 1 0 0-4.91 2.455 2.455 0 0 0 0 4.91m73.662 13.098a2.456 2.456 0 1 0-.001-4.911 2.456 2.456 0 0 0 .001 4.911m22.918 57.293a2.456 2.456 0 1 0-.001-4.911 2.456 2.456 0 0 0 .001 4.911"/><path fill="#E1EDFF" d="M714.336 260.931a2.456 2.456 0 1 0 0-4.911 2.456 2.456 0 0 0 0 4.911m-31.101-103.132a2.456 2.456 0 1 0-.001-4.911 2.456 2.456 0 0 0 .001 4.911m63.842 99.855a2.455 2.455 0 1 0 0-4.91 2.455 2.455 0 0 0 0 4.91m-44.2 217.719a2.457 2.457 0 1 0-.001-4.913 2.457 2.457 0 0 0 .001 4.913m0-294.654a2.457 2.457 0 1 0-.001-4.913 2.457 2.457 0 0 0 .001 4.913m50.746 108.041a2.456 2.456 0 1 0 0-4.912 2.456 2.456 0 0 0 0 4.912m-99.855-85.124a2.455 2.455 0 1 0 0-4.91 2.455 2.455 0 0 0 0 4.91m86.76 130.958a2.456 2.456 0 1 0-.001-4.911 2.456 2.456 0 0 0 .001 4.911m-72.026-126.045a2.457 2.457 0 1 0-.001-4.913 2.457 2.457 0 0 0 .001 4.913m27.828 16.369a2.456 2.456 0 1 0 0-4.912 2.456 2.456 0 0 0 0 4.912m50.747 3.273a2.455 2.455 0 1 0 0-4.91 2.455 2.455 0 0 0 0 4.91m-91.67-36.013a2.456 2.456 0 1 0-.001-4.911 2.456 2.456 0 0 0 .001 4.911m4.91 299.566a2.455 2.455 0 1 0 0-4.91 2.455 2.455 0 0 0 0 4.91m-90.033-257.006a2.455 2.455 0 1 0 0-4.91 2.455 2.455 0 0 0 0 4.91m68.753-42.56a2.456 2.456 0 1 0 0-4.912 2.456 2.456 0 0 0 0 4.912m86.76-39.288a2.455 2.455 0 1 0 0-4.91 2.455 2.455 0 0 0 0 4.91m-81.849 248.819a2.456 2.456 0 1 0-.001-4.911 2.456 2.456 0 0 0 .001 4.911m-36.012-178.43a2.455 2.455 0 1 0 0-4.91 2.455 2.455 0 0 0 0 4.91m72.023 14.734a2.456 2.456 0 1 0 0-4.911 2.456 2.456 0 0 0 0 4.911m-65.478-60.566a2.455 2.455 0 1 0 0-4.91 2.455 2.455 0 0 0 0 4.91m-24.553-27.83a2.456 2.456 0 1 0 0-4.911 2.456 2.456 0 0 0 0 4.911m44.197 13.096a2.457 2.457 0 1 0-.001-4.913 2.457 2.457 0 0 0 .001 4.913m42.563 55.656a2.455 2.455 0 1 0 0-4.91 2.455 2.455 0 0 0 0 4.91m-6.549-47.473a2.456 2.456 0 1 0 0-4.911 2.456 2.456 0 0 0 0 4.911m-40.924 11.461a2.456 2.456 0 1 0 0-4.911 2.456 2.456 0 0 0 0 4.911m14.733-13.097a2.456 2.456 0 1 0-.001-4.911 2.456 2.456 0 0 0 .001 4.911m-1.639-16.372a2.455 2.455 0 1 0 0-4.91 2.455 2.455 0 0 0 0 4.91m-13.094 42.563a2.456 2.456 0 1 0 0-4.912 2.456 2.456 0 0 0 0 4.912M593.2 164.349a2.455 2.455 0 1 0 0-4.91 2.455 2.455 0 0 0 0 4.91m137.507 222.629a2.455 2.455 0 1 0 .002-4.91 2.455 2.455 0 0 0-.002 4.91m39.287-99.855a2.457 2.457 0 1 0-.001-4.913 2.457 2.457 0 0 0 .001 4.913m-11.46-14.733a2.455 2.455 0 1 0 0-4.91 2.455 2.455 0 0 0 0 4.91m-178.43-108.041a2.455 2.455 0 1 0 0-4.91 2.455 2.455 0 0 0 0 4.91m106.406 44.2a2.457 2.457 0 1 0-.001-4.913 2.457 2.457 0 0 0 .001 4.913m-68.754 6.546a2.456 2.456 0 1 0 0-4.911 2.456 2.456 0 0 0 0 4.911m4.91-39.287a2.455 2.455 0 1 0 .002-4.91 2.455 2.455 0 0 0-.002 4.91m70.389 286.469a2.456 2.456 0 1 0 0-4.911 2.456 2.456 0 0 0 0 4.911M588.289 228.191a2.455 2.455 0 1 0 .002-4.91 2.455 2.455 0 0 0-.002 4.91m40.926-24.555a2.456 2.456 0 1 0 0-4.911 2.456 2.456 0 0 0 0 4.911m18.008-21.279a2.455 2.455 0 1 0 0-4.91 2.455 2.455 0 0 0 0 4.91m-47.473-6.549a2.456 2.456 0 1 0 0-4.911 2.456 2.456 0 0 0 0 4.911m9.821 11.459a2.455 2.455 0 1 0 0-4.91 2.455 2.455 0 0 0 0 4.91m1.638 55.657a2.457 2.457 0 1 0-.001-4.913 2.457 2.457 0 0 0 .001 4.913m76.936 39.289a2.456 2.456 0 1 0-.001-4.911 2.456 2.456 0 0 0 .001 4.911m-435.363 46.285a2.456 2.456 0 1 0-.001-4.911 2.456 2.456 0 0 0 .001 4.911m94.945 83.484a2.455 2.455 0 1 0 0-4.91 2.455 2.455 0 0 0 0 4.91m11.459-19.64a2.456 2.456 0 1 0-.001-4.911 2.456 2.456 0 0 0 .001 4.911m-1.637-18.008a2.457 2.457 0 1 0-.001-4.913 2.457 2.457 0 0 0 .001 4.913m-1.636 40.924a2.456 2.456 0 1 0-.001-4.911 2.456 2.456 0 0 0 .001 4.911m3.273-14.733a2.455 2.455 0 1 0 0-4.91 2.455 2.455 0 0 0 0 4.91"/><path fill="#E1EDFF" d="M355.913 413.623a2.456 2.456 0 1 0-.001-4.911 2.456 2.456 0 0 0 .001 4.911m-.001-88.399a2.455 2.455 0 1 0 .002-4.91 2.455 2.455 0 0 0-.002 4.91m3.274 72.028a2.456 2.456 0 1 0-.001-4.911 2.456 2.456 0 0 0 .001 4.911"/><path fill="#E1EDFF" d="M354.274 413.623a2.456 2.456 0 1 0-.001-4.911 2.456 2.456 0 0 0 .001 4.911m16.371-26.195a2.456 2.456 0 1 0-.001-4.911 2.456 2.456 0 0 0 .001 4.911m332.232 45.384a2.456 2.456 0 1 0 0-4.911 2.456 2.456 0 0 0 0 4.911m-350.238-42.111a2.456 2.456 0 1 0 0-4.912 2.456 2.456 0 0 0 0 4.912m1.635-14.731a2.455 2.455 0 1 0 0-4.91 2.455 2.455 0 0 0 0 4.91m-36.014-44.199a2.456 2.456 0 1 0 0-4.911 2.456 2.456 0 0 0 0 4.911m373.16-169.058a2.457 2.457 0 1 0-.001-4.913 2.457 2.457 0 0 0 .001 4.913M387.014 344.869a2.456 2.456 0 1 0 0-4.912 2.456 2.456 0 0 0 0 4.912M745.44 244.56a2.455 2.455 0 1 0 0-4.91 2.455 2.455 0 0 0 0 4.91M357.549 384.154a2.456 2.456 0 1 0 0-4.911 2.456 2.456 0 0 0 0 4.911m358.426-124.859a2.456 2.456 0 1 0-.001-4.911 2.456 2.456 0 0 0 .001 4.911"/><path fill="#E1EDFF" d="M354.274 410.347a2.455 2.455 0 1 0 0-4.91 2.455 2.455 0 0 0 0 4.91m245.476-56.109a2.456 2.456 0 1 0 0-4.911 2.456 2.456 0 0 0 0 4.911m34.375-111.314a2.457 2.457 0 1 0-.001-4.913 2.457 2.457 0 0 0 .001 4.913m94.944 57.293a2.456 2.456 0 1 0-.001-4.911 2.456 2.456 0 0 0 .001 4.911m22.92-34.375a2.456 2.456 0 1 0-.001-4.911 2.456 2.456 0 0 0 .001 4.911m8.185-29.465a2.457 2.457 0 1 0-.001-4.913 2.457 2.457 0 0 0 .001 4.913"/><path fill="#E1EDFF" d="M756.899 267.478a2.455 2.455 0 1 0 0-4.91 2.455 2.455 0 0 0 0 4.91m-11.459-4.91a2.455 2.455 0 1 0 0-4.91 2.455 2.455 0 0 0 0 4.91m-420.631 36.465a2.455 2.455 0 1 0 0-4.91 2.455 2.455 0 0 0 0 4.91m6.549 73.664a2.455 2.455 0 1 0 0-4.91 2.455 2.455 0 0 0 0 4.91m355.152 84.668a2.456 2.456 0 1 0 0-4.911 2.456 2.456 0 0 0 0 4.911m-68.754-253.729a2.456 2.456 0 1 0 0-4.911 2.456 2.456 0 0 0 0 4.911m39.287-11.458a2.457 2.457 0 1 0-.001-4.913 2.457 2.457 0 0 0 .001 4.913m-54.019 16.371a2.456 2.456 0 1 0-.001-4.911 2.456 2.456 0 0 0 .001 4.911m90.031-13.098a2.456 2.456 0 1 0 0-4.912 2.456 2.456 0 0 0 0 4.912m-29.465 0a2.456 2.456 0 1 0 0-4.912 2.456 2.456 0 0 0 0 4.912m-19.642 42.562a2.455 2.455 0 1 0 0-4.91 2.455 2.455 0 0 0 0 4.91m-1.639-16.371a2.455 2.455 0 1 0 0-4.91 2.455 2.455 0 0 0 0 4.91m-369.883 83.94a2.457 2.457 0 1 0-.001-4.913 2.457 2.457 0 0 0 .001 4.913m446.82-43.014a2.455 2.455 0 1 0 .002-4.91 2.455 2.455 0 0 0-.002 4.91m-103.128-91.672a2.455 2.455 0 1 0 0-4.91 2.455 2.455 0 0 0 0 4.91m112.951 224.266a2.455 2.455 0 1 0 0-4.91 2.455 2.455 0 0 0 0 4.91m-1.637-65.477a2.455 2.455 0 1 0 0-4.91 2.455 2.455 0 0 0 0 4.91m27.828-34.379a2.456 2.456 0 1 0 0-4.911 2.456 2.456 0 0 0 0 4.911m-34.375 73.664a2.456 2.456 0 1 0 0-4.911 2.456 2.456 0 0 0 0 4.911m26.192-147.328a2.455 2.455 0 1 0 0-4.91 2.455 2.455 0 0 0 0 4.91M565.373 352.601a2.455 2.455 0 1 0 .002-4.91 2.455 2.455 0 0 0-.002 4.91m-230.74-50.295a2.456 2.456 0 1 0 0-4.911 2.456 2.456 0 0 0 0 4.911m-21.281-21.281a2.455 2.455 0 1 0 0-4.91 2.455 2.455 0 0 0 0 4.91m443.547 155.059a2.456 2.456 0 1 0-.001-4.911 2.456 2.456 0 0 0 .001 4.911M542.455 324.773a2.455 2.455 0 1 0 .002-4.91 2.455 2.455 0 0 0-.002 4.91M305.166 429.99a2.455 2.455 0 1 0 .002-4.91 2.455 2.455 0 0 0-.002 4.91m-21.281-47.473a2.456 2.456 0 1 0 0-4.911 2.456 2.456 0 0 0 0 4.911m8.186 78.575a2.456 2.456 0 1 0-.001-4.911 2.456 2.456 0 0 0 .001 4.911m279.847-288.557a2.456 2.456 0 1 0 0-4.912 2.456 2.456 0 0 0 0 4.912m-294.58 87.209a2.456 2.456 0 1 0 0-4.912 2.456 2.456 0 0 0 0 4.912m49.11 147.328a2.455 2.455 0 1 0 0-4.91 2.455 2.455 0 0 0 0 4.91m373.156-28.281a2.456 2.456 0 1 0-.001-4.911 2.456 2.456 0 0 0 .001 4.911m8.185 83.486a2.455 2.455 0 1 0 .002-4.91 2.455 2.455 0 0 0-.002 4.91m-31.101-235.724a2.456 2.456 0 1 0-.001-4.911 2.456 2.456 0 0 0 .001 4.911m34.373 22.919a2.455 2.455 0 1 0 0-4.91 2.455 2.455 0 0 0 0 4.91m54.023-21.281a2.456 2.456 0 1 0 0-4.911 2.456 2.456 0 0 0 0 4.911"/><path fill="#E1EDFF" d="M621.032 202a2.456 2.456 0 1 0-.001-4.911 2.456 2.456 0 0 0 .001 4.911m-45.838 54.019a2.455 2.455 0 1 0 0-4.91 2.455 2.455 0 0 0 0 4.91m140.781 6.549a2.455 2.455 0 1 0 0-4.91 2.455 2.455 0 0 0 0 4.91M347.727 425.08a2.455 2.455 0 1 0 0-4.91 2.455 2.455 0 0 0 0 4.91m6.547-18.008a2.455 2.455 0 1 0 0-4.91 2.455 2.455 0 0 0 0 4.91m34.377-73.664a2.455 2.455 0 1 0 0-4.91 2.455 2.455 0 0 0 0 4.91M282.248 438.174a2.456 2.456 0 1 0 0-4.912 2.456 2.456 0 0 0 0 4.912m-14.732-137.502a2.457 2.457 0 1 0-.001-4.913 2.457 2.457 0 0 0 .001 4.913m-4.912 60.564a2.455 2.455 0 1 0 0-4.91 2.455 2.455 0 0 0 0 4.91m60.568 81.852a2.457 2.457 0 1 0-.001-4.913 2.457 2.457 0 0 0 .001 4.913m-65.478-121.137a2.455 2.455 0 1 0 0-4.91 2.455 2.455 0 0 0 0 4.91m-3.274-31.102a2.456 2.456 0 1 0 0-4.911 2.456 2.456 0 0 0 0 4.911m108.039 109.676a2.456 2.456 0 1 0 0-4.911 2.456 2.456 0 0 0 0 4.911m11.459-1.639a2.456 2.456 0 1 0 0-4.911 2.456 2.456 0 0 0 0 4.911m-85.123-117.861a2.456 2.456 0 1 0 0-4.911 2.456 2.456 0 0 0 0 4.911m477.924 2.822a2.456 2.456 0 1 0 0-4.911 2.456 2.456 0 0 0 0 4.911m-155.51 67.118a2.457 2.457 0 1 0-.001-4.913 2.457 2.457 0 0 0 .001 4.913m9.823-166.973a2.455 2.455 0 1 0 0-4.91 2.455 2.455 0 0 0 0 4.91m73.662 13.098a2.456 2.456 0 1 0-.001-4.911 2.456 2.456 0 0 0 .001 4.911m22.918 57.293a2.456 2.456 0 1 0-.001-4.911 2.456 2.456 0 0 0 .001 4.911"/><path fill="#E1EDFF" d="M714.336 260.931a2.456 2.456 0 1 0 0-4.911 2.456 2.456 0 0 0 0 4.911m-31.101-103.132a2.456 2.456 0 1 0-.001-4.911 2.456 2.456 0 0 0 .001 4.911m63.842 99.855a2.455 2.455 0 1 0 0-4.91 2.455 2.455 0 0 0 0 4.91m-44.2 217.719a2.457 2.457 0 1 0-.001-4.913 2.457 2.457 0 0 0 .001 4.913m0-294.654a2.457 2.457 0 1 0-.001-4.913 2.457 2.457 0 0 0 .001 4.913m50.746 108.041a2.456 2.456 0 1 0 0-4.912 2.456 2.456 0 0 0 0 4.912m-99.855-85.124a2.455 2.455 0 1 0 0-4.91 2.455 2.455 0 0 0 0 4.91m86.76 130.958a2.456 2.456 0 1 0-.001-4.911 2.456 2.456 0 0 0 .001 4.911m-72.026-126.045a2.457 2.457 0 1 0-.001-4.913 2.457 2.457 0 0 0 .001 4.913m27.828 16.369a2.456 2.456 0 1 0 0-4.912 2.456 2.456 0 0 0 0 4.912m50.747 3.273a2.455 2.455 0 1 0 0-4.91 2.455 2.455 0 0 0 0 4.91m-91.67-36.013a2.456 2.456 0 1 0-.001-4.911 2.456 2.456 0 0 0 .001 4.911m4.91 299.566a2.455 2.455 0 1 0 0-4.91 2.455 2.455 0 0 0 0 4.91m-90.033-257.006a2.455 2.455 0 1 0 0-4.91 2.455 2.455 0 0 0 0 4.91m68.753-42.56a2.456 2.456 0 1 0 0-4.912 2.456 2.456 0 0 0 0 4.912m86.76-39.288a2.455 2.455 0 1 0 0-4.91 2.455 2.455 0 0 0 0 4.91m-81.849 248.819a2.456 2.456 0 1 0-.001-4.911 2.456 2.456 0 0 0 .001 4.911m-36.012-178.43a2.455 2.455 0 1 0 0-4.91 2.455 2.455 0 0 0 0 4.91m72.023 14.734a2.456 2.456 0 1 0 0-4.911 2.456 2.456 0 0 0 0 4.911m-65.478-60.566a2.455 2.455 0 1 0 0-4.91 2.455 2.455 0 0 0 0 4.91m-24.553-27.83a2.456 2.456 0 1 0 0-4.911 2.456 2.456 0 0 0 0 4.911m44.197 13.096a2.457 2.457 0 1 0-.001-4.913 2.457 2.457 0 0 0 .001 4.913m42.563 55.656a2.455 2.455 0 1 0 0-4.91 2.455 2.455 0 0 0 0 4.91m-6.549-47.473a2.456 2.456 0 1 0 0-4.911 2.456 2.456 0 0 0 0 4.911m-40.924 11.461a2.456 2.456 0 1 0 0-4.911 2.456 2.456 0 0 0 0 4.911m14.733-13.097a2.456 2.456 0 1 0-.001-4.911 2.456 2.456 0 0 0 .001 4.911m-1.639-16.372a2.455 2.455 0 1 0 0-4.91 2.455 2.455 0 0 0 0 4.91m-13.094 42.563a2.456 2.456 0 1 0 0-4.912 2.456 2.456 0 0 0 0 4.912M593.2 164.349a2.455 2.455 0 1 0 0-4.91 2.455 2.455 0 0 0 0 4.91m137.507 222.629a2.455 2.455 0 1 0 .002-4.91 2.455 2.455 0 0 0-.002 4.91m39.287-99.855a2.457 2.457 0 1 0-.001-4.913 2.457 2.457 0 0 0 .001 4.913m-11.46-14.733a2.455 2.455 0 1 0 0-4.91 2.455 2.455 0 0 0 0 4.91m-178.43-108.041a2.455 2.455 0 1 0 0-4.91 2.455 2.455 0 0 0 0 4.91m106.406 44.2a2.457 2.457 0 1 0-.001-4.913 2.457 2.457 0 0 0 .001 4.913m-68.754 6.546a2.456 2.456 0 1 0 0-4.911 2.456 2.456 0 0 0 0 4.911m4.91-39.287a2.455 2.455 0 1 0 .002-4.91 2.455 2.455 0 0 0-.002 4.91m70.389 286.469a2.456 2.456 0 1 0 0-4.911 2.456 2.456 0 0 0 0 4.911M588.289 228.191a2.455 2.455 0 1 0 .002-4.91 2.455 2.455 0 0 0-.002 4.91m40.926-24.555a2.456 2.456 0 1 0 0-4.911 2.456 2.456 0 0 0 0 4.911m18.008-21.279a2.455 2.455 0 1 0 0-4.91 2.455 2.455 0 0 0 0 4.91m-47.473-6.549a2.456 2.456 0 1 0 0-4.911 2.456 2.456 0 0 0 0 4.911m9.821 11.459a2.455 2.455 0 1 0 0-4.91 2.455 2.455 0 0 0 0 4.91m1.638 55.657a2.457 2.457 0 1 0-.001-4.913 2.457 2.457 0 0 0 .001 4.913m76.936 39.289a2.456 2.456 0 1 0-.001-4.911 2.456 2.456 0 0 0 .001 4.911m-435.363 46.285a2.456 2.456 0 1 0-.001-4.911 2.456 2.456 0 0 0 .001 4.911m94.945 83.484a2.455 2.455 0 1 0 0-4.91 2.455 2.455 0 0 0 0 4.91m11.459-19.64a2.456 2.456 0 1 0-.001-4.911 2.456 2.456 0 0 0 .001 4.911m-1.637-18.008a2.457 2.457 0 1 0-.001-4.913 2.457 2.457 0 0 0 .001 4.913m-1.636 40.924a2.456 2.456 0 1 0-.001-4.911 2.456 2.456 0 0 0 .001 4.911m3.273-14.733a2.455 2.455 0 1 0 0-4.91 2.455 2.455 0 0 0 0 4.91"/><path fill="#E1EDFF" d="M355.913 413.623a2.456 2.456 0 1 0-.001-4.911 2.456 2.456 0 0 0 .001 4.911m-.001-88.399a2.455 2.455 0 1 0 .002-4.91 2.455 2.455 0 0 0-.002 4.91m3.274 72.028a2.456 2.456 0 1 0-.001-4.911 2.456 2.456 0 0 0 .001 4.911"/><path fill="#E1EDFF" d="M354.274 413.623a2.456 2.456 0 1 0-.001-4.911 2.456 2.456 0 0 0 .001 4.911m16.371-26.195a2.456 2.456 0 1 0-.001-4.911 2.456 2.456 0 0 0 .001 4.911m332.232 45.384a2.456 2.456 0 1 0 0-4.911 2.456 2.456 0 0 0 0 4.911m-350.238-42.111a2.456 2.456 0 1 0 0-4.912 2.456 2.456 0 0 0 0 4.912m1.635-14.731a2.455 2.455 0 1 0 0-4.91 2.455 2.455 0 0 0 0 4.91m-36.014-44.199a2.456 2.456 0 1 0 0-4.911 2.456 2.456 0 0 0 0 4.911m373.16-169.058a2.457 2.457 0 1 0-.001-4.913 2.457 2.457 0 0 0 .001 4.913M387.014 344.869a2.456 2.456 0 1 0 0-4.912 2.456 2.456 0 0 0 0 4.912M745.44 244.56a2.455 2.455 0 1 0 0-4.91 2.455 2.455 0 0 0 0 4.91M357.549 384.154a2.456 2.456 0 1 0 0-4.911 2.456 2.456 0 0 0 0 4.911m358.426-124.859a2.456 2.456 0 1 0-.001-4.911 2.456 2.456 0 0 0 .001 4.911"/><path fill="#E1EDFF" d="M354.274 410.347a2.455 2.455 0 1 0 0-4.91 2.455 2.455 0 0 0 0 4.91m245.476-56.109a2.456 2.456 0 1 0 0-4.911 2.456 2.456 0 0 0 0 4.911m34.375-111.314a2.457 2.457 0 1 0-.001-4.913 2.457 2.457 0 0 0 .001 4.913m94.944 57.293a2.456 2.456 0 1 0-.001-4.911 2.456 2.456 0 0 0 .001 4.911m22.92-34.375a2.456 2.456 0 1 0-.001-4.911 2.456 2.456 0 0 0 .001 4.911m8.185-29.465a2.457 2.457 0 1 0-.001-4.913 2.457 2.457 0 0 0 .001 4.913"/><path fill="#E1EDFF" d="M756.899 267.478a2.455 2.455 0 1 0 0-4.91 2.455 2.455 0 0 0 0 4.91m-11.459-4.91a2.455 2.455 0 1 0 0-4.91 2.455 2.455 0 0 0 0 4.91m-420.631 36.465a2.455 2.455 0 1 0 0-4.91 2.455 2.455 0 0 0 0 4.91m6.549 73.664a2.455 2.455 0 1 0 0-4.91 2.455 2.455 0 0 0 0 4.91m355.152 84.668a2.456 2.456 0 1 0 0-4.911 2.456 2.456 0 0 0 0 4.911m-68.754-253.729a2.456 2.456 0 1 0 0-4.911 2.456 2.456 0 0 0 0 4.911m39.287-11.458a2.457 2.457 0 1 0-.001-4.913 2.457 2.457 0 0 0 .001 4.913m-54.019 16.371a2.456 2.456 0 1 0-.001-4.911 2.456 2.456 0 0 0 .001 4.911m90.031-13.098a2.456 2.456 0 1 0 0-4.912 2.456 2.456 0 0 0 0 4.912m-29.465 0a2.456 2.456 0 1 0 0-4.912 2.456 2.456 0 0 0 0 4.912m-19.642 42.562a2.455 2.455 0 1 0 0-4.91 2.455 2.455 0 0 0 0 4.91m-1.639-16.371a2.455 2.455 0 1 0 0-4.91 2.455 2.455 0 0 0 0 4.91m-369.883 83.94a2.457 2.457 0 1 0-.001-4.913 2.457 2.457 0 0 0 .001 4.913m446.82-43.014a2.455 2.455 0 1 0 .002-4.91 2.455 2.455 0 0 0-.002 4.91m-103.128-91.672a2.455 2.455 0 1 0 0-4.91 2.455 2.455 0 0 0 0 4.91m112.951 224.266a2.455 2.455 0 1 0 0-4.91 2.455 2.455 0 0 0 0 4.91m-1.637-65.477a2.455 2.455 0 1 0 0-4.91 2.455 2.455 0 0 0 0 4.91m27.828-34.379a2.456 2.456 0 1 0 0-4.911 2.456 2.456 0 0 0 0 4.911m-34.375 73.664a2.456 2.456 0 1 0 0-4.911 2.456 2.456 0 0 0 0 4.911m26.192-147.328a2.455 2.455 0 1 0 0-4.91 2.455 2.455 0 0 0 0 4.91M565.373 352.601a2.455 2.455 0 1 0 .002-4.91 2.455 2.455 0 0 0-.002 4.91m-230.74-50.295a2.456 2.456 0 1 0 0-4.911 2.456 2.456 0 0 0 0 4.911m-21.281-21.281a2.455 2.455 0 1 0 0-4.91 2.455 2.455 0 0 0 0 4.91m14.373-155.726a2.456 2.456 0 1 0-.001-4.911 2.456 2.456 0 0 0 .001 4.911m20.937-19.194a2.455 2.455 0 1 0 .002-4.91 2.455 2.455 0 0 0-.002 4.91m20.936-17.447a2.455 2.455 0 1 0 0-4.91 2.455 2.455 0 0 0 0 4.91m31.406-13.957a2.456 2.456 0 1 0 0-4.912 2.456 2.456 0 0 0 0 4.912m176.217-27.916a2.456 2.456 0 1 0 0-4.912 2.456 2.456 0 0 0 0 4.912m179.678 389.299a2.456 2.456 0 1 0-.001-4.911 2.456 2.456 0 0 0 .001 4.911M542.455 324.773a2.455 2.455 0 1 0 .002-4.91 2.455 2.455 0 0 0-.002 4.91M305.166 429.99a2.455 2.455 0 1 0 .002-4.91 2.455 2.455 0 0 0-.002 4.91m-21.281-47.473a2.456 2.456 0 1 0 0-4.911 2.456 2.456 0 0 0 0 4.911m8.186 78.575a2.456 2.456 0 1 0-.001-4.911 2.456 2.456 0 0 0 .001 4.911m279.847-288.557a2.456 2.456 0 1 0 0-4.912 2.456 2.456 0 0 0 0 4.912m-294.58 87.209a2.456 2.456 0 1 0 0-4.912 2.456 2.456 0 0 0 0 4.912m49.11 147.328a2.455 2.455 0 1 0 0-4.91 2.455 2.455 0 0 0 0 4.91m373.156-28.281a2.456 2.456 0 1 0-.001-4.911 2.456 2.456 0 0 0 .001 4.911m8.185 83.486a2.455 2.455 0 1 0 .002-4.91 2.455 2.455 0 0 0-.002 4.91m-31.101-235.724a2.456 2.456 0 1 0-.001-4.911 2.456 2.456 0 0 0 .001 4.911m34.373 22.919a2.455 2.455 0 1 0 0-4.91 2.455 2.455 0 0 0 0 4.91m54.023-21.281a2.456 2.456 0 1 0 0-4.911 2.456 2.456 0 0 0 0 4.911"/><path fill="#E1EDFF" d="M621.032 202a2.456 2.456 0 1 0-.001-4.911 2.456 2.456 0 0 0 .001 4.911m-45.838 54.019a2.455 2.455 0 1 0 0-4.91 2.455 2.455 0 0 0 0 4.91m140.781 6.549a2.455 2.455 0 1 0 0-4.91 2.455 2.455 0 0 0 0 4.91M347.727 425.08a2.455 2.455 0 1 0 0-4.91 2.455 2.455 0 0 0 0 4.91m6.547-18.008a2.455 2.455 0 1 0 0-4.91 2.455 2.455 0 0 0 0 4.91m34.377-73.664a2.455 2.455 0 1 0 0-4.91 2.455 2.455 0 0 0 0 4.91M282.248 438.174a2.456 2.456 0 1 0 0-4.912 2.456 2.456 0 0 0 0 4.912m-14.732-137.502a2.457 2.457 0 1 0-.001-4.913 2.457 2.457 0 0 0 .001 4.913m-4.912 60.564a2.455 2.455 0 1 0 0-4.91 2.455 2.455 0 0 0 0 4.91m60.568 81.852a2.457 2.457 0 1 0-.001-4.913 2.457 2.457 0 0 0 .001 4.913m-65.478-121.137a2.455 2.455 0 1 0 0-4.91 2.455 2.455 0 0 0 0 4.91m-3.274-31.102a2.456 2.456 0 1 0 0-4.911 2.456 2.456 0 0 0 0 4.911m108.039 109.676a2.456 2.456 0 1 0 0-4.911 2.456 2.456 0 0 0 0 4.911m11.459-1.639a2.456 2.456 0 1 0 0-4.911 2.456 2.456 0 0 0 0 4.911m-85.123-117.861a2.456 2.456 0 1 0 0-4.911 2.456 2.456 0 0 0 0 4.911m477.924 2.822a2.456 2.456 0 1 0 0-4.911 2.456 2.456 0 0 0 0 4.911m-155.51 67.118a2.457 2.457 0 1 0-.001-4.913 2.457 2.457 0 0 0 .001 4.913m9.823-166.973a2.455 2.455 0 1 0 0-4.91 2.455 2.455 0 0 0 0 4.91m73.662 13.098a2.456 2.456 0 1 0-.001-4.911 2.456 2.456 0 0 0 .001 4.911m22.918 57.293a2.456 2.456 0 1 0-.001-4.911 2.456 2.456 0 0 0 .001 4.911"/><path fill="#E1EDFF" d="M714.336 260.931a2.456 2.456 0 1 0 0-4.911 2.456 2.456 0 0 0 0 4.911m-31.101-103.132a2.456 2.456 0 1 0-.001-4.911 2.456 2.456 0 0 0 .001 4.911m63.842 99.855a2.455 2.455 0 1 0 0-4.91 2.455 2.455 0 0 0 0 4.91m-44.2 217.719a2.457 2.457 0 1 0-.001-4.913 2.457 2.457 0 0 0 .001 4.913m0-294.654a2.457 2.457 0 1 0-.001-4.913 2.457 2.457 0 0 0 .001 4.913m50.746 108.041a2.456 2.456 0 1 0 0-4.912 2.456 2.456 0 0 0 0 4.912m-99.855-85.124a2.455 2.455 0 1 0 0-4.91 2.455 2.455 0 0 0 0 4.91m86.76 130.958a2.456 2.456 0 1 0-.001-4.911 2.456 2.456 0 0 0 .001 4.911m-72.026-126.045a2.457 2.457 0 1 0-.001-4.913 2.457 2.457 0 0 0 .001 4.913m27.828 16.369a2.456 2.456 0 1 0 0-4.912 2.456 2.456 0 0 0 0 4.912m50.747 3.273a2.455 2.455 0 1 0 0-4.91 2.455 2.455 0 0 0 0 4.91m-91.67-36.013a2.456 2.456 0 1 0-.001-4.911 2.456 2.456 0 0 0 .001 4.911m4.91 299.566a2.455 2.455 0 1 0 0-4.91 2.455 2.455 0 0 0 0 4.91m-90.033-257.006a2.455 2.455 0 1 0 0-4.91 2.455 2.455 0 0 0 0 4.91m68.753-42.56a2.456 2.456 0 1 0 0-4.912 2.456 2.456 0 0 0 0 4.912m86.76-39.288a2.455 2.455 0 1 0 0-4.91 2.455 2.455 0 0 0 0 4.91m-81.849 248.819a2.456 2.456 0 1 0-.001-4.911 2.456 2.456 0 0 0 .001 4.911m-36.012-178.43a2.455 2.455 0 1 0 0-4.91 2.455 2.455 0 0 0 0 4.91m72.023 14.734a2.456 2.456 0 1 0 0-4.911 2.456 2.456 0 0 0 0 4.911m-65.478-60.566a2.455 2.455 0 1 0 0-4.91 2.455 2.455 0 0 0 0 4.91m-24.553-27.83a2.456 2.456 0 1 0 0-4.911 2.456 2.456 0 0 0 0 4.911m44.197 13.096a2.457 2.457 0 1 0-.001-4.913 2.457 2.457 0 0 0 .001 4.913m42.563 55.656a2.455 2.455 0 1 0 0-4.91 2.455 2.455 0 0 0 0 4.91m-6.549-47.473a2.456 2.456 0 1 0 0-4.911 2.456 2.456 0 0 0 0 4.911m-40.924 11.461a2.456 2.456 0 1 0 0-4.911 2.456 2.456 0 0 0 0 4.911m14.733-13.097a2.456 2.456 0 1 0-.001-4.911 2.456 2.456 0 0 0 .001 4.911m-1.639-16.372a2.455 2.455 0 1 0 0-4.91 2.455 2.455 0 0 0 0 4.91m-13.094 42.563a2.456 2.456 0 1 0 0-4.912 2.456 2.456 0 0 0 0 4.912M593.2 164.349a2.455 2.455 0 1 0 0-4.91 2.455 2.455 0 0 0 0 4.91m137.507 222.629a2.455 2.455 0 1 0 .002-4.91 2.455 2.455 0 0 0-.002 4.91m39.287-99.855a2.457 2.457 0 1 0-.001-4.913 2.457 2.457 0 0 0 .001 4.913m-11.46-14.733a2.455 2.455 0 1 0 0-4.91 2.455 2.455 0 0 0 0 4.91m-178.43-108.041a2.455 2.455 0 1 0 0-4.91 2.455 2.455 0 0 0 0 4.91m106.406 44.2a2.457 2.457 0 1 0-.001-4.913 2.457 2.457 0 0 0 .001 4.913m-68.754 6.546a2.456 2.456 0 1 0 0-4.911 2.456 2.456 0 0 0 0 4.911m4.91-39.287a2.455 2.455 0 1 0 .002-4.91 2.455 2.455 0 0 0-.002 4.91m70.389 286.469a2.456 2.456 0 1 0 0-4.911 2.456 2.456 0 0 0 0 4.911M588.289 228.191a2.455 2.455 0 1 0 .002-4.91 2.455 2.455 0 0 0-.002 4.91m40.926-24.555a2.456 2.456 0 1 0 0-4.911 2.456 2.456 0 0 0 0 4.911m18.008-21.279a2.455 2.455 0 1 0 0-4.91 2.455 2.455 0 0 0 0 4.91m-47.473-6.549a2.456 2.456 0 1 0 0-4.911 2.456 2.456 0 0 0 0 4.911m9.821 11.459a2.455 2.455 0 1 0 0-4.91 2.455 2.455 0 0 0 0 4.91m1.638 55.657a2.457 2.457 0 1 0-.001-4.913 2.457 2.457 0 0 0 .001 4.913m76.936 39.289a2.456 2.456 0 1 0-.001-4.911 2.456 2.456 0 0 0 .001 4.911m-435.363 46.285a2.456 2.456 0 1 0-.001-4.911 2.456 2.456 0 0 0 .001 4.911m94.945 83.484a2.455 2.455 0 1 0 0-4.91 2.455 2.455 0 0 0 0 4.91m11.459-19.64a2.456 2.456 0 1 0-.001-4.911 2.456 2.456 0 0 0 .001 4.911m-1.637-18.008a2.457 2.457 0 1 0-.001-4.913 2.457 2.457 0 0 0 .001 4.913m-1.636 40.924a2.456 2.456 0 1 0-.001-4.911 2.456 2.456 0 0 0 .001 4.911m3.273-14.733a2.455 2.455 0 1 0 0-4.91 2.455 2.455 0 0 0 0 4.91"/><path fill="#E1EDFF" d="M355.913 413.623a2.456 2.456 0 1 0-.001-4.911 2.456 2.456 0 0 0 .001 4.911m-.001-88.399a2.455 2.455 0 1 0 .002-4.91 2.455 2.455 0 0 0-.002 4.91m3.274 72.028a2.456 2.456 0 1 0-.001-4.911 2.456 2.456 0 0 0 .001 4.911"/><path fill="#E1EDFF" d="M354.274 413.623a2.456 2.456 0 1 0-.001-4.911 2.456 2.456 0 0 0 .001 4.911m16.371-26.195a2.456 2.456 0 1 0-.001-4.911 2.456 2.456 0 0 0 .001 4.911m332.232 45.384a2.456 2.456 0 1 0 0-4.911 2.456 2.456 0 0 0 0 4.911m-350.238-42.111a2.456 2.456 0 1 0 0-4.912 2.456 2.456 0 0 0 0 4.912m1.635-14.731a2.455 2.455 0 1 0 0-4.91 2.455 2.455 0 0 0 0 4.91m-36.014-44.199a2.456 2.456 0 1 0 0-4.911 2.456 2.456 0 0 0 0 4.911m373.16-169.058a2.457 2.457 0 1 0-.001-4.913 2.457 2.457 0 0 0 .001 4.913M387.014 344.869a2.456 2.456 0 1 0 0-4.912 2.456 2.456 0 0 0 0 4.912M745.44 244.56a2.455 2.455 0 1 0 0-4.91 2.455 2.455 0 0 0 0 4.91M357.549 384.154a2.456 2.456 0 1 0 0-4.911 2.456 2.456 0 0 0 0 4.911m358.426-124.859a2.456 2.456 0 1 0-.001-4.911 2.456 2.456 0 0 0 .001 4.911"/><path fill="#E1EDFF" d="M354.274 410.347a2.455 2.455 0 1 0 0-4.91 2.455 2.455 0 0 0 0 4.91m245.476-56.109a2.456 2.456 0 1 0 0-4.911 2.456 2.456 0 0 0 0 4.911m34.375-111.314a2.457 2.457 0 1 0-.001-4.913 2.457 2.457 0 0 0 .001 4.913m94.944 57.293a2.456 2.456 0 1 0-.001-4.911 2.456 2.456 0 0 0 .001 4.911m22.92-34.375a2.456 2.456 0 1 0-.001-4.911 2.456 2.456 0 0 0 .001 4.911m8.185-29.465a2.457 2.457 0 1 0-.001-4.913 2.457 2.457 0 0 0 .001 4.913"/><path fill="#E1EDFF" d="M756.899 267.478a2.455 2.455 0 1 0 0-4.91 2.455 2.455 0 0 0 0 4.91m-11.459-4.91a2.455 2.455 0 1 0 0-4.91 2.455 2.455 0 0 0 0 4.91m-420.631 36.465a2.455 2.455 0 1 0 0-4.91 2.455 2.455 0 0 0 0 4.91m6.549 73.664a2.455 2.455 0 1 0 0-4.91 2.455 2.455 0 0 0 0 4.91m355.152 84.668a2.456 2.456 0 1 0 0-4.911 2.456 2.456 0 0 0 0 4.911m-68.754-253.729a2.456 2.456 0 1 0 0-4.911 2.456 2.456 0 0 0 0 4.911m39.287-11.458a2.457 2.457 0 1 0-.001-4.913 2.457 2.457 0 0 0 .001 4.913m-54.019 16.371a2.456 2.456 0 1 0-.001-4.911 2.456 2.456 0 0 0 .001 4.911m90.031-13.098a2.456 2.456 0 1 0 0-4.912 2.456 2.456 0 0 0 0 4.912m-29.465 0a2.456 2.456 0 1 0 0-4.912 2.456 2.456 0 0 0 0 4.912m-19.642 42.562a2.455 2.455 0 1 0 0-4.91 2.455 2.455 0 0 0 0 4.91m-1.639-16.371a2.455 2.455 0 1 0 0-4.91 2.455 2.455 0 0 0 0 4.91"/><path fill="#0D0059" d="M187.706 542.917a9.5 9.5 0 0 0 7.707 7.706 9.5 9.5 0 0 0-7.707 7.707 9.5 9.5 0 0 0-7.706-7.707 9.5 9.5 0 0 0 7.706-7.706"/><path fill="#3E74FF" d="m173.5 504.917.422 2.393a23.035 23.035 0 0 0 18.685 18.685l2.393.422-2.393.422a23.035 23.035 0 0 0-18.685 18.685l-.422 2.393-.422-2.393a23.035 23.035 0 0 0-18.685-18.685l-2.393-.422 2.393-.422a23.035 23.035 0 0 0 18.685-18.685z"/><path fill="#0D0059" d="M9.413 132.804a11.605 11.605 0 0 0 9.413 9.413 11.6 11.6 0 0 0-9.413 9.413A11.6 11.6 0 0 0 0 142.217a11.605 11.605 0 0 0 9.413-9.413m890 425.113a11.605 11.605 0 0 0 9.413 9.413 11.605 11.605 0 0 0-9.413 9.413A11.605 11.605 0 0 0 890 567.33a11.605 11.605 0 0 0 9.413-9.413"/><path fill="#3E74FF" d="m38.682 124.917 3.05 30.103a17.66 17.66 0 0 0 15.147 15.711l11.484 1.588-11.463 1.586a17.66 17.66 0 0 0-15.15 15.737l-3.068 30.746-3.07-30.746a17.66 17.66 0 0 0-15.15-15.737L9 172.319l11.484-1.588a17.66 17.66 0 0 0 15.147-15.711zm979.498-30 2.23 21.966a17.656 17.656 0 0 0 15.14 15.71l6.81.942-6.78.939a17.656 17.656 0 0 0-15.15 15.737l-2.25 22.485-2.24-22.485a17.656 17.656 0 0 0-15.15-15.737l-6.79-.939 6.81-.942c8.07-1.116 14.32-7.606 15.15-15.71zm-142.594 426 .925 9.125a15.93 15.93 0 0 0 13.662 14.17 15.9 15.9 0 0 0-13.643 14.171l-.944 9.451-.943-9.451A15.9 15.9 0 0 0 861 544.212a15.93 15.93 0 0 0 13.662-14.17z"/><path stroke="#3E74FF" d="M523.4 637.917c-167.342 0-303-135.658-303-303"/><path stroke="#3E74FF" d="M402.369 624.205c-155.396-62.094-231.031-238.404-168.937-393.8M523.4 31.917c167.343 0 303 135.658 303 303"/><path stroke="#3E74FF" d="M665.373 76.846c144.138 85.015 192.068 270.78 107.053 414.919M523.4 637.917c91.363 0 173.282-40.436 228.835-104.389"/><path stroke="#3E74FF" d="M526.4 648.194c91.363 0 173.282-40.436 228.835-104.389M447.953 36.468c-88.577 22.39-158.087 81.67-196.273 157.287"/><path stroke="#3E74FF" d="M396.82 68.468c-81.593 41.106-136.558 114.076-157.397 196.185"/><path stroke="#3E74FF" stroke-linejoin="round" d="M481.41 54.655c18.321-2.73 36.511-3.617 54.542-2.855a1.93 1.93 0 0 1 1.367.654c.987 1.12.391 2.889-1.073 3.182l-8.877 1.78-3.532.685a2.07 2.07 0 0 0-1.546 1.307 2.07 2.07 0 0 1-1.254 1.227l-2.645.93a8.1 8.1 0 0 1-3.298.433l-2.59-.2a10 10 0 0 0-5.809 1.336l-4.618 2.696a1.7 1.7 0 0 1-.807.235l-2.017.075c-1.013.038-1.492-1.236-.705-1.875a1.056 1.056 0 0 0-.411-1.844l-2.909-.72a1.656 1.656 0 0 1-.932-2.593 1.66 1.66 0 0 1 1.617-.645l5.274.926c1.785.313 3.623.136 5.315-.514l.056-.022a10 10 0 0 1 5.524-.475l1.943.384a4.2 4.2 0 0 0 2.435-.242l3.447-1.428c1.921-.797 2.049-3.47.212-4.445l-.238-.127a1.5 1.5 0 0 0-.801-.173l-5.002.312c-.429.027-.521.619-.121.775.384.15.321.71-.086.77l-4.168.622a1.5 1.5 0 0 1-.528-.014l-6.544-1.333a1.8 1.8 0 0 0-.609-.016l-3.087.46a.463.463 0 0 0-.207.83.463.463 0 0 1-.235.833l-8.511.74a3.7 3.7 0 0 1-.757-.012l-5.54-.658a9.6 9.6 0 0 0-2.203-.013c-8.517.956-16.883 2.816-24.758 5.53-.289.1-.557.252-.792.448l-2.501 2.085a.923.923 0 0 0 .378 1.607.923.923 0 0 1 .495 1.49l-1.562 1.87a2.43 2.43 0 0 1-1.718.866l-11.912.715a2.85 2.85 0 0 0-1.899.896c-1.672 1.787-.44 4.75 2.007 4.744.424 0 .841-.098 1.222-.284l10.052-4.913a10 10 0 0 1 2.199-.773l14.213-3.194a10 10 0 0 0 2.334-.84l6.777-3.44a9.3 9.3 0 0 1 3.025-.931l6.747-.865a1.876 1.876 0 0 1 2.072 1.461 1.88 1.88 0 0 1-.914 2.035l-2.5 1.405a5 5 0 0 1-.706.323l-2.821 1.015a1.008 1.008 0 0 0 .514 1.944l7.488-1.295a.942.942 0 0 1 .672 1.72l-8.702 5.62a3.7 3.7 0 0 0-1.67 3.518 3.7 3.7 0 0 1-2.845 4.015l-3.962.914a.745.745 0 0 0 .278 1.463l3.563-.532a2.468 2.468 0 0 1 1.328 4.713l-9.927 4.21a2.8 2.8 0 0 0-.618.36l-.47.36a2.394 2.394 0 0 0 .109 3.875c1.55 1.058 1.335 3.406-.382 4.165l-3.906 1.728c-1.329.478-2.856.097-3.472-1.175l-.046-.095a2.5 2.5 0 0 0-.952-1.051l-.252-.155c-2.521-1.546-2.139-5.32.641-6.33l6.609-2.398a1.3 1.3 0 0 0 .333-.181c1.051-.795.349-2.467-.955-2.273l-5.845.871a2.78 2.78 0 0 1-1.976-.452l-5.94-4.052a4.53 4.53 0 0 0-4.98-.08 4.5 4.5 0 0 1-2.003.686l-10.303.976a.7.7 0 0 0-.282.089c-.634.36-.375 1.327.354 1.321l9.502-.078a1.295 1.295 0 1 1-.193 2.575l-1.44-.23a2.36 2.36 0 0 0-1.634.336l-3.417 2.16c-.906.571-.716 1.943.311 2.248.403.12.719.435.839.839l.26.87a2.924 2.924 0 0 1-1.848 3.599l-12.095 4.177c-.106.037-.108.048-.218.064-.541.081-1.198-.071-1.602-.44l-1.103-1.008a1.406 1.406 0 0 1 .235-2.248c1.338-.789.596-2.847-.938-2.599l-8.512 1.377a3 3 0 0 0-1.193.467l-3.682 2.446a10 10 0 0 1-4.059 1.561l-8.447 1.259c-1.201.179-2.36.576-3.42 1.17l-12.086 6.784-17.946 10.353c-.731.422-1.512.749-2.326.975l-7.688 2.131a10 10 0 0 0-6.148 4.923l-1.876 3.51a4.9 4.9 0 0 1-.885 1.182l-10.171 9.999c-1.28 1.258-3.377-.094-2.759-1.779q.1-.273.286-.497l6.041-7.261c1.295-1.557-.018-3.889-2.02-3.591l-1.6.239a.976.976 0 0 1-1.112-1.085c.11-.891-.939-1.44-1.603-.836-13.554 12.334-24.394 25.877-33.122 40.034a.977.977 0 0 0 .445 1.408.98.98 0 0 0 1.21-.358l5.216-7.878a1.7 1.7 0 0 1 1.316-.76c1.487-.091 2.367 1.636 1.418 2.785l-8.121 9.842-7.668 10.355a3.45 3.45 0 0 0 .269 4.431 3.46 3.46 0 0 1 .733 3.574l-3.424 9.264-6.067 11.727a4.4 4.4 0 0 0-.384 1.049l-1.672 7.379c-.3 1.323 1.187 2.321 2.298 1.542a1.485 1.485 0 0 1 1.894.159l1.438 1.422c.395.39.602.932.567 1.485l-.076 1.199c-.085 1.341 1.533 2.077 2.488 1.131l5.619-5.347a3.65 3.65 0 0 1 2.738-.999l3.361.206a1.366 1.366 0 0 1 1.153 1.945 1.4 1.4 0 0 1-.247.361l-4.424 4.638a.98.98 0 0 0-.267.753c.074.906 1.239 1.227 1.767.487l2.295-3.221a2.42 2.42 0 0 1 2.227-1.002l1.56.165a2.43 2.43 0 0 1 2.104 2.995 2.43 2.43 0 0 0 1.479 2.843l1.261.491a2.43 2.43 0 0 1 1.54 2.058l.004.044a2.37 2.37 0 0 0 1.866 2.116l.807.173a1.27 1.27 0 0 0 1.382-.638c.303-.561.976-.81 1.572-.58l3.125 1.203a2.025 2.025 0 0 1 .9 3.095 2.03 2.03 0 0 0-.248 1.97l2.668 6.542c.129.318.209.654.235.997l.063.821a2.17 2.17 0 0 0 1.631 1.935 2.17 2.17 0 0 1 1.495 1.33l1.803 4.73a3.93 3.93 0 0 1-.837 4.116 3.926 3.926 0 0 0-.36 5.003l2 2.793a6.22 6.22 0 0 0 4.456 2.571 6.22 6.22 0 0 1 4.736 2.999l6.941 11.601c.416.694.679 1.468.773 2.271l.425 3.625a1.85 1.85 0 0 0 1.941 1.629 1.848 1.848 0 0 1 1.838 2.487l-1.546 4.172a4.76 4.76 0 0 1-2.771 2.795l-1.647.626a6.8 6.8 0 0 0-3.804 3.616l-1.165 2.652a1.54 1.54 0 0 1-1.186.906l-2.852.425c-.847.127-.961 1.302-.155 1.589.138.049.286.06.43.033l8.754-1.665a2.75 2.75 0 0 1 2.155.493l1.054.78a1.62 1.62 0 0 1 .188 2.439c-1.053 1.065-.218 2.866 1.275 2.751l1.463-.112 1.982.111a8.39 8.39 0 0 1 6.458 3.647l.846 1.24a4.17 4.17 0 0 0 2.255 1.647 4.17 4.17 0 0 1 2.634 2.329l.219.503a5.35 5.35 0 0 0 4.286 3.175l.486.056c1.29.149 2.501.7 3.461 1.575l2.859 2.607a3.26 3.26 0 0 0 2.314.847 3.2 3.2 0 0 1 1.057.135l2.448.736a10 10 0 0 1 6.312 5.634l3.728 8.689a2.95 2.95 0 0 0 2.946 1.775 2.95 2.95 0 0 1 1.82.45l.632.402a5.17 5.17 0 0 1 2.344 3.606l.863 5.785a10 10 0 0 1-.492 4.889l-.776 2.135a3.9 3.9 0 0 0-.225 1.618 3.92 3.92 0 0 1-1.22 3.131l-4.692 4.431-3.819 3.459q-.599.543-1.278.983l-.586.379q-.83.539-1.54 1.229l-2.924 2.847a5.4 5.4 0 0 1-2.166 1.287 5.4 5.4 0 0 0-2.333 1.458l-.466.496a7.98 7.98 0 0 0-2.152 5.007l-.322 5.598a10 10 0 0 1-.697 3.136l-2.205 5.52a3.3 3.3 0 0 1-1.261 1.534 3.27 3.27 0 0 0-1.453 2.227l-.529 3.274-.091.942a10 10 0 0 1-2.549 5.753l-2.93 3.228a2.68 2.68 0 0 0-.691 1.977 2.68 2.68 0 0 1-.944 2.222l-.828.701a4.84 4.84 0 0 1-4.58.921l-3.814-1.202a3.006 3.006 0 0 0-3.434 1.243 3.01 3.01 0 0 1-3.179 1.311l-2.545-.562a6.75 6.75 0 0 0-5.121.925l-.783.507a8.27 8.27 0 0 0-3.687 5.729c-.12.808-.12 1.628.001 2.435l.087.588c.125.837.143 1.687.054 2.529l-.162 1.529a8.32 8.32 0 0 1-2.404 5.018 8.3 8.3 0 0 0-1.994 3.178l-.149.431a10 10 0 0 1-3.331 4.641l-.095.073a10 10 0 0 0-3.231 4.364l-.964 2.542q-.135.358-.338.681l-.35.557a3.104 3.104 0 0 1-3.972 1.148l-1.05-.504c-1.583-.76-3.415.4-3.404 2.156.002.383.097.76.276 1.098l.911 1.72c.371.7.62 1.457.737 2.241l.337 2.262a2.493 2.493 0 0 1-3.275 2.726l-1.182-.405c-1.444-.496-2.872.785-2.536 2.275l.088.393a1.578 1.578 0 0 1-2.639 1.477l-1.246-1.213c-.679-.661-1.811-.082-1.671.857q.025.162.1.308l3.571 6.919c.503.975.842 2.026 1.004 3.112l.175 1.17c.146.98.104 1.979-.125 2.943l-.025.107a7.32 7.32 0 0 0 3.585 8.099l1.013.56a8.99 8.99 0 0 1 4.54 6.538 8.98 8.98 0 0 0 3.123 5.568l1.423 1.189a8.55 8.55 0 0 1 2.482 3.456 8.56 8.56 0 0 0 2.877 3.766l2.481 1.837 3.288 3.137q.121.116.186.272a.798.798 0 0 1-.911 1.084l-.922-.205a1.3 1.3 0 0 1-.66-.377l-13.642-14.562-8.46-11.903-6.231-6.953a10 10 0 0 1-1.674-2.577l-7.807-17.383-8.368-13.377a10 10 0 0 1-1.32-3.303l-5.061-24.795-2.699-8.337a10 10 0 0 1-.47-2.524l-2.422-43.472-3.13-22.28a10 10 0 0 0-1.392-3.86l-2.983-4.835a10 10 0 0 1-1.243-3.045l-2.471-10.924a10 10 0 0 1-.245-2.012l-1.003-51.651a5.66 5.66 0 0 1 1.33-3.758l.205-.244a4.96 4.96 0 0 0 1.111-3.924 4.96 4.96 0 0 1 .257-2.459l3.51-9.435a10 10 0 0 1 2.53-3.806l1.497-1.405a10 10 0 0 0 2.382-3.429l8.883-21.211 2.293-6.476c.136-.383.175-.793.115-1.194l-.229-1.536a1.55 1.55 0 0 0-2.456-1.016 1.55 1.55 0 0 0-.609 1.473l.138.927a1.373 1.373 0 0 1-2.71.441l-.824-4.68c-.1-.568-.085-1.15.045-1.711l2.664-11.542a10 10 0 0 1 .504-1.575l4.456-10.769a4.4 4.4 0 0 0-.105-3.605 4.4 4.4 0 0 1-.352-2.798l.668-3.283 3.488-10.951a2.95 2.95 0 0 0-.15-2.169 2.93 2.93 0 0 1 .181-2.862C329.59 113.97 398.592 67 481.41 54.655Zm61.954-.887c-.582-.54-.164-1.508.628-1.452 19.328 1.383 38.033 4.695 56.282 9.912.647.185.864.99.4 1.477a.897.897 0 0 0 .018 1.257l.099.097c.41.406.411 1.068.002 1.475l-1.7 1.692a3.42 3.42 0 0 1-2.447.995l-3.41-.037a.575.575 0 0 0-.035 1.15l1.117.055a.792.792 0 1 1-.131 1.58l-4.904-.566a.58.58 0 0 0-.607.366l-.294.757a2 2 0 0 1-.588.81l-.223.184a3.09 3.09 0 0 1-2.784.59l-2.122-.587a.77.77 0 0 0-.499.03l-.252.105c-.599.248-.538 1.115.09 1.277.731.189.649 1.252-.102 1.326l-4.215.414q-.225.022-.447-.027l-7.916-1.752a10 10 0 0 0-4.046-.057l-4.808.923c-1.901.365-3.867.17-5.66-.56l-.721-.295a10 10 0 0 0-5.249-.63l-5.632.84a10 10 0 0 0-2.439.688l-13.21 5.618a1.32 1.32 0 0 1-1.363-.202l-.586-.49a.72.72 0 0 1 .035-1.132c.612-.451.198-1.42-.551-1.29l-3.918.683a1.406 1.406 0 0 1-1.324-2.28l4.954-5.986a10 10 0 0 1 3.79-2.827l10.015-4.259a10 10 0 0 1 5.935-.591l1.126.232a7.1 7.1 0 0 0 4.397-.501l8.712-4.001a.919.919 0 0 0-.609-1.726l-3.275.828a.706.706 0 0 1-.471-1.323l.862-.402c1.049-.489.884-2.03-.245-2.285l-.168-.038a1.3 1.3 0 0 0-.524-.008l-2.904.562a10 10 0 0 1-3.026.12l-4.577-.518a.84.84 0 0 1-.48-.22Zm141.562 51.19c-.907-1.031.335-2.437 1.456-1.644 60.908 43.084 104.917 110.012 116.789 189.659a284 284 0 0 1 1.91 15.839c.164 1.779-2.199 2.274-2.803.594l-1.675-4.871a5.7 5.7 0 0 1-.247-1.015l-.364-2.437a3.617 3.617 0 0 0-4.672-2.913 3.62 3.62 0 0 1-3.696-.933l-.96-.994a3.36 3.36 0 0 1-.892-2.912l.254-1.443a1.133 1.133 0 1 0-2.235-.378l-.1.616c-.204 1.248-1.743 1.732-2.624.824l-4.106-4.23a4.5 4.5 0 0 1-1.004-1.604l-4.448-12.277c-.559-1.541-2.575-1.9-3.631-.646a2.13 2.13 0 0 0-.467 1.746l1.691 9.458a10 10 0 0 0 3.463 5.94l.211.174a10 10 0 0 1 3.571 6.721l.407 4.143.061.407c.08.535.308 1.037.66 1.449l.26.305a2.513 2.513 0 0 0 4.401-1.317l.43-3.423a1.36 1.36 0 0 1 2.67-.152l.601 2.47c.122.502.337.977.634 1.4l2.834 4.041a10 10 0 0 1 1.811 5.57l.185 10.835a10 10 0 0 1-.663 3.758l-4.881 12.702a10 10 0 0 1-2.78 3.966l-.877.76a10 10 0 0 0-2.159 2.645l-4.623 8.208a10 10 0 0 1-4.116 3.973l-4.72 2.443-4.705 3.074a2.744 2.744 0 0 1-3.825-.838 2.75 2.75 0 0 1-.419-1.506l.27-15.736a10 10 0 0 0-.181-2.074l-2.953-15.242a10 10 0 0 0-2.004-4.338l-1.482-1.854a5.7 5.7 0 0 1-1.161-4.548 5.7 5.7 0 0 0-.152-2.617l-2.727-9.14a10 10 0 0 0-2.17-3.855l-1.123-1.24a10 10 0 0 1-2.025-3.404l-5.31-15.15a2.064 2.064 0 0 0-2.253-1.359 2.064 2.064 0 0 1-2.205-1.237l-2.269-5.36c-.525-1.239-2.369-.886-2.4.459-.004.176.03.352.099.514l11.027 26.111c.327.773.555 1.585.679 2.416l.547 3.67a10 10 0 0 0 1.818 4.428l2.638 3.607a10 10 0 0 1 1.801 4.313l5.237 32.522 1.936 7.959c.148.608.352 1.201.611 1.77l2.363 5.206a5 5 0 0 1 .431 1.651 5 5 0 0 0 5.92 4.497l3.943-.75q.759-.145 1.48-.421l4.021-1.545a1.43 1.43 0 0 1 1.159.062c.595.303.899.979.731 1.625l-1.569 6.067-4.053 13.77a10 10 0 0 1-1.108 2.468l-10.186 16.338a10 10 0 0 1-1.739 2.09l-17.559 16.052-9.531 8.764a10 10 0 0 0-2.686 4.1l-5.883 17.058a10 10 0 0 0-.544 3.498l.097 4.128a10 10 0 0 1-.984 4.57l-7.431 15.455c-.411.853-.94 1.644-1.573 2.349l-7.035 7.833a10 10 0 0 1-3.122 2.337l-13.418 6.424-3.597 2.299a10 10 0 0 0-4.445 6.595l-.057.307a10 10 0 0 1-1.151 3.135l-3.962 6.925a10 10 0 0 1-5.842 4.623l-6.858 2.029a10 10 0 0 0-3.747 2.063l-12.135 10.616a10 10 0 0 1-2.641 1.663l-29.39 12.611a10 10 0 0 1-5.673.66l-7.432-1.306a10 10 0 0 0-2.452-.124l-5.66.41c-3.485.253-6.324-2.756-5.87-6.22a5.52 5.52 0 0 1 2.077-3.633l.535-.417a7.18 7.18 0 0 0 2.568-4.003l2.015-8.512a10 10 0 0 0 .109-4.086l-.382-2.11a10 10 0 0 1 .255-4.633l6.831-22.973a10 10 0 0 0 .415-2.895l-.073-16.086a10 10 0 0 1 .287-2.425l1.254-5.118a10 10 0 0 1 3.36-5.342l9.868-8.12a10 10 0 0 0 3.631-7.156l1.527-26.925a10 10 0 0 0-.694-4.266l-4.162-10.451a10 10 0 0 1 .424-8.325l3.396-6.511a10 10 0 0 0 1.114-4.008l.202-3.273a10 10 0 0 0-2.93-7.707l-6.05-6.016a.26.26 0 0 1-.075-.149.26.26 0 0 0-.116-.182l-10.604-6.993a10 10 0 0 0-6.01-1.639l-21.51 1.087a10 10 0 0 1-5.261-1.19l-3.159-1.708a10 10 0 0 0-1.536-.671l-17.294-5.881a10 10 0 0 1-5.565-4.689l-1.968-3.618a10 10 0 0 0-4.762-4.376l-3.768-1.656a10 10 0 0 1-5.896-7.883l-.106-.824a9.6 9.6 0 0 0-3.21-6.011 9.6 9.6 0 0 1-3.219-6.081l-1.047-8.673a10 10 0 0 0-1.696-4.477l-3.585-5.2a10 10 0 0 1-1.763-5.391l-.042-1.468a6 6 0 0 0-.245-1.523 5.92 5.92 0 0 1 1.568-5.956l4.581-4.408a10 10 0 0 0 1.759-2.263l4.117-7.24a10 10 0 0 0 1.15-6.707l-.045-.256a10 10 0 0 1 .767-5.963l1.011-2.185a8.34 8.34 0 0 1 4.119-4.09 8.34 8.34 0 0 0 3.984-3.812l3.648-7.175a10 10 0 0 1 2.755-3.345l18.369-14.363a8.02 8.02 0 0 1 5.301-1.694 8.02 8.02 0 0 0 7.792-4.997l.314-.774a9.2 9.2 0 0 1 5.336-5.171l3.184-1.178a10 10 0 0 0 2.788-1.579l5.827-4.674a10 10 0 0 1 4.205-1.987l2.766-.58a10 10 0 0 1 3.581-.096l14.027 2.169 27.259 3.46 4.559.573q.764.096 1.504.308l3.487.997a10 10 0 0 1 6.88 6.925l1.099 3.934a5.35 5.35 0 0 1-.312 3.712 5.34 5.34 0 0 0-.022 4.505l.542 1.179a8.13 8.13 0 0 0 3.798 3.903l5.782 2.848a8.7 8.7 0 0 1 4.463 5.217 8.7 8.7 0 0 0 7.331 6.057l2.05.232a5.3 5.3 0 0 1 3.189 1.561l1.012 1.036a2.454 2.454 0 0 0 4.138-1.116l.556-2.207a5.87 5.87 0 0 1 5.142-4.41l.088-.009a6 6 0 0 1 5.416 2.45l2.478 3.417a9.06 9.06 0 0 0 6.33 3.684l.723.081a7.04 7.04 0 0 1 4.284 2.105l.069.071a6.89 6.89 0 0 0 7.313 1.685l.248-.09a6.51 6.51 0 0 1 7.201 1.911l.242.286q.121.143.265.263a2.17 2.17 0 0 0 3.135-.373l1.122-1.516a3.95 3.95 0 0 0 .753-1.931l1.479-13.888a10 10 0 0 0-.092-2.774l-1.04-5.977a2.18 2.18 0 0 0-1.042-1.505l-1.805-1.064c-.857-.506-1.917.209-1.771 1.193a1.033 1.033 0 0 1-.869 1.175l-1.529.228a2.58 2.58 0 0 1-2.892-1.969l-.107-.458a3.09 3.09 0 0 0-2.856-2.387l-1.594-.079a1.52 1.52 0 0 0-1.57 1.253 1.518 1.518 0 0 1-2.101 1.13l-2.292-.998a3.5 3.5 0 0 1-1.837-1.885l-4.106-10.108a5.83 5.83 0 0 0-2.032-2.564l-2.234-1.583a2.74 2.74 0 0 1-.827-3.538 2.74 2.74 0 0 0-1.108-3.713l-.094-.051a2.84 2.84 0 0 0-2.339-.166l-2.914 1.074a1.37 1.37 0 0 1-1.202-.125c-1.013-.636-2.297.24-2.076 1.415l.253 1.341a1.97 1.97 0 0 0 .91 1.316l4.643 2.826q.124.076.222.184c.248.274.326.661.203 1.009l-.996 2.826a.63.63 0 0 1-.94.318l-5.639-3.702a1.44 1.44 0 0 1-.649-1.194 1.44 1.44 0 0 0-.546-1.12l-3.92-3.104a10 10 0 0 1-3.481-5.364l-.886-3.468a10 10 0 0 0-.814-2.133l-1.705-3.282a10 10 0 0 0-2.672-3.235l-8.385-6.631a10 10 0 0 1-1.499-1.465l-5.55-6.701a1.12 1.12 0 0 0-1.948.982l1.117 4.538c.118.477.3.935.542 1.363l5.341 9.436a10 10 0 0 0 3.84 3.812l8.785 4.888a1.203 1.203 0 1 1-1.3 2.017l-1.233-.913a1.887 1.887 0 0 0-2.915 2.107l1.041 3.154c.074.224.072.466-.004.69l-.808 2.356c-.226.659-1.198.512-1.219-.184a.6.6 0 0 0-.042-.207l-2.144-5.541a10 10 0 0 0-2.69-3.871l-11.75-10.425a9.44 9.44 0 0 1-3.074-5.673l-.249-1.673a6.52 6.52 0 0 0-4.056-5.102 6.52 6.52 0 0 0-4.569-.078l-3.647 1.295a7.84 7.84 0 0 1-6.188-.406l-3.198-1.634a2.73 2.73 0 0 0-3.113.441 2.73 2.73 0 0 0-.849 2.26l.01.108a2.954 2.954 0 0 1-2.371 3.188l-3.628.71a6.74 6.74 0 0 0-4.23 2.753l-.277.396a5.54 5.54 0 0 0-.939 3.986 5.53 5.53 0 0 1-2.735 5.623l-4.992 2.841a10 10 0 0 1-7.697.923l-1.87-.535a6.2 6.2 0 0 0-2.617-.172l-1.555.232a4.1 4.1 0 0 1-4.33-2.344l-.059-.128a3.94 3.94 0 0 0-4.739-2.12l-.376.116c-2.573.793-5.101-1.35-4.74-4.018a3.7 3.7 0 0 0-.184-1.742l-.301-.837a7.32 7.32 0 0 1 .617-6.253l5.69-9.451a5.54 5.54 0 0 0 .599-4.319 5.545 5.545 0 0 1 4.641-6.959l1.928-.248a7.23 7.23 0 0 1 3.852.56l4.166 1.844q.697.308 1.433.507l4.95 1.341a6.126 6.126 0 0 0 7.478-7.641l-.496-1.689a6.08 6.08 0 0 0-4.074-4.104l-.854-.258a4.98 4.98 0 0 1-3.522-5.204l.05-.567a2.738 2.738 0 0 1 3.578-2.364l3.057.999a3.24 3.24 0 0 0 3.4-.895 3.24 3.24 0 0 1 3.501-.86l.855.311a4.6 4.6 0 0 0 4.421-.71l3.223-2.539 5.857-4.931a5.6 5.6 0 0 1 3.184-1.302l2.045-.157a2.728 2.728 0 0 0 2.083-4.204l-1.929-2.979a2.693 2.693 0 0 1 4.398-3.105l3.695 4.811a.497.497 0 0 0 .818-.122l.589-1.253a1.42 1.42 0 0 0-.145-1.452l-5.156-6.93a4.535 4.535 0 0 0-5.496-1.429l-.348.156a4 4 0 0 1-4.549-.906l-1.166-1.236a1.69 1.69 0 0 1-.242-1.99 1.69 1.69 0 0 0-.128-1.854l-.967-1.27a4.16 4.16 0 0 1-.702-3.559 4.25 4.25 0 0 1 3.309-3.093l.357-.067a4.78 4.78 0 0 0 3.634-3.102l4.275-12.037a3.16 3.16 0 0 1 3.32-2.081l.242.026a2.67 2.67 0 0 1 1.991 1.273 2.66 2.66 0 0 0 2.071 1.28l1.475.116a5.54 5.54 0 0 1 4.153 2.418l1.674 2.471a.4.4 0 0 1 .057.146.354.354 0 0 0 .38.301l2.022-.174a2.52 2.52 0 0 1 1.712.485l2.011 1.49a4.73 4.73 0 0 0 3.251.908 4.73 4.73 0 0 1 3.405 1.027l9.032 7.279a.848.848 0 0 1-.839 1.45l-.225-.087c-1.183-.461-2.144 1.037-1.231 1.92l1.38 1.335a.8.8 0 0 1 .143.182l.129.221a.632.632 0 0 0 .946.169.63.63 0 0 1 .746-.041l.146.095c.795.52 1.728-.43 1.195-1.216l-.55-.81a1.064 1.064 0 0 1 .123-1.347l.034-.034a1.124 1.124 0 0 0-.024-1.602l-2.392-2.282c-.574-.547.091-1.467.791-1.095.571.305 1.205-.283.944-.875l-.939-2.137a1.5 1.5 0 0 0-.501-.615l-5.741-4.08-5.673-4.513c-.254-.202-.071-.61.249-.554a.3.3 0 0 1 .135.059l14.092 10.616a.9.9 0 0 0 .459.179c.82.08 1.315-.886.77-1.505zm49.753 135.398a1.022 1.022 0 0 0-1.531.22l-.181.282c-.23.359-.621.583-1.048.602l-1.489.064a1.844 1.844 0 0 0-.726 3.5l.533.259a2.796 2.796 0 0 0 3.822-1.49l.902-2.289a1.02 1.02 0 0 0-.282-1.148Zm-41.618-19.097a1.516 1.516 0 0 0-.072 1.835l3.694 5.268c.076.108.235.11.313.004a.2.2 0 0 1 .034-.035l.3-.242a3.214 3.214 0 0 0 .193-4.829l-2.248-2.136a1.517 1.517 0 0 0-2.214.135Zm11.815 13.191a.99.99 0 0 0-1.431.709.99.99 0 0 0 .386.967l2.142 1.586c.269.199.606.283.937.234l.157-.023a1.147 1.147 0 0 0 .854-1.654 1.14 1.14 0 0 0-.496-.499zm-36.269-19.035a2.28 2.28 0 0 0-2.047 4.07l3.682 1.973c1.47.787 3.193-.489 2.869-2.124a2 2 0 0 1-.037-.337l-.001-.034a2.37 2.37 0 0 0-1.357-2.085zm-19.359-17.353 1.182 5.816a1.81 1.81 0 0 0 2.246 1.385l1.153-.313a.464.464 0 0 0 .338-.517l-.109-6.372a1.69 1.69 0 0 0-1.571-1.658 1.7 1.7 0 0 0-.692.096l-2.055.739a.76.76 0 0 0-.492.824Zm-30.662-86.67a.964.964 0 0 0-.373 1.268l.053.104a.68.68 0 0 0 .395.339.7.7 0 0 1 .293.19l.233.257a.405.405 0 0 0 .653-.069l.524-.9a.81.81 0 0 0-.011-.834l-.069-.112a1.09 1.09 0 0 0-1.481-.369zm-11.909-7.313a.4.4 0 0 0-.097.088l-.244.329c-.087.119.292.243.145.265-.09.013.013.081.064.156.017.025.042.031.089.028a.3.3 0 0 1 .196.051l.352.261a1.32 1.32 0 0 0 1.772-.183l.632-.708a.893.893 0 0 0-1.129-1.361zm4.046 12.685c-.052.22-.139.43-.258.622l-.625 1.011c-.588.948-.33 2.19.587 2.827l1.058.735c.631.439.659 1.363.055 1.839a1.144 1.144 0 0 0 .188 1.918l3.533 1.805a2.488 2.488 0 0 1-1.335 4.698l-1.224-.099a2.5 2.5 0 0 0-2.638 1.917l-.273 1.155a1.21 1.21 0 0 0 .803 1.431c1.042.341 1.133 1.779.142 2.248l-2.434 1.153a2.008 2.008 0 0 0 .712 3.817l13.948 1.021a5.108 5.108 0 0 0 3.668-8.996l-1.467-1.239a1.65 1.65 0 0 1-.565-1.013l-.072-2.332a3.53 3.53 0 0 0-.803-2.135l-3.381-3.341a1.24 1.24 0 0 1-.355-.699l-.253-1.695a2.53 2.53 0 0 0-.627-1.326l-.45-.497c-.332-.366-.522-.844-.322-1.296.11-.249.254-.555.267-.826l.019-.377c.008-.172.023-.352-.034-.515l-.014-.03c-.121-.221-.332-.38-.524-.543l-2.324-1.973a3.23 3.23 0 0 0-1.695-.744l-1.002-.124a2.104 2.104 0 0 0-2.305 1.603Zm-7.546 5.353a3.18 3.18 0 0 0-3.35.754l-.073.074a2.87 2.87 0 0 1-1.618.822 2.87 2.87 0 0 0-2.419 2.438l-.304 2.157a1.83 1.83 0 0 0 1.203 1.982l2.11.744a.177.177 0 0 1 .084.273.2.2 0 0 1-.08.06l-2.861 1.084a2.175 2.175 0 0 0 1.09 4.184l5.383-.803a4.56 4.56 0 0 0 3.889-4.539l-.003-.485a3.4 3.4 0 0 1 .978-2.404l.972-.984a.62.62 0 0 0 .174-.53.6.6 0 0 0-.061-.191l-.755-1.488a5.45 5.45 0 0 0-2.996-2.653zm135.801 356.937a.061.061 0 0 0-.109-.027l-10.156 13.717a7.13 7.13 0 0 1-4.679 2.808l-.575.086a8.54 8.54 0 0 0-5.951 3.873l-10.972 17.312a10 10 0 0 1-2.439 2.642l-2.107 1.583a10 10 0 0 0-1.693 1.615l-8.36 10.091a1.885 1.885 0 0 0 2.449 2.799l2.47-1.542a5.8 5.8 0 0 1 1.557-.678l1.552-.418a10 10 0 0 0 4.817-2.946l23.716-26.209c.213-.235.508-.692.672-.962.465-.761 1.136-1.053 1.53-1.853l2.889-5.867a6.2 6.2 0 0 1 2.482-2.645l2.043-1.173c.464-.266.77-.74.822-1.272l2.184-9.805a1.01 1.01 0 0 0-1.135-1.218l-.939.14a.06.06 0 0 1-.068-.051Zm10.113-289.973c-.665.199-1.2.696-1.447 1.346l-1.159 3.056a5.95 5.95 0 0 0-.321 2.984l.026.175a5.53 5.53 0 0 0 2.336 3.744 5.54 5.54 0 0 1 2.102 2.778l.546 1.606c.234.686.541 1.345.916 1.965l5.294 8.731a10 10 0 0 1 1.441 4.811l.087 2.313a10 10 0 0 0 1.425 4.783l6.692 11.12a2.38 2.38 0 0 0 2.51 1.104l1.804-.367a.436.436 0 0 0 .344-.491l-1.793-8.043a2.3 2.3 0 0 0-.366-.83l-4.381-6.488a10 10 0 0 1-1.692-4.949l-.309-4.747a1.8 1.8 0 0 0-.291-.752l-10.174-15.118a2.6 2.6 0 0 1-.418-1.077l-.159-1.065c-.071-.479.172-.95.604-1.169.562-.286.78-.978.483-1.534l-1.497-2.801a2.23 2.23 0 0 0-2.603-1.085Zm-7.686 20.928a1.827 1.827 0 0 1-2.121 2.753l-14.299-5.08a2.685 2.685 0 0 0-2.885.725 2.68 2.68 0 0 1-1.923.879l-5.202.123a.35.35 0 0 1-.356-.3.35.35 0 0 0-.083-.179l-3.107-3.573a10 10 0 0 1-1.405-11.027l1.188-2.381c.219-.438.34-.919.356-1.409a3.4 3.4 0 0 1 3.949-3.246l.315.051a3.68 3.68 0 0 1 2.696 1.99l2.99 6.004a.426.426 0 0 0 .467.23l.865-.169a2.427 2.427 0 0 0 1.607-3.643l-.379-.622c-1.064-1.75-.001-4.018 2.025-4.32l.275-.041a2.546 2.546 0 0 1 2.721 3.505l-.284.674a4.616 4.616 0 0 0 1.81 5.708l1.654 1.031a6.9 6.9 0 0 1 2.044 1.96zm-79.93-101.815c-.826-.08-1.334.882-.802 1.519l.949 1.135c.253.302.38.691.354 1.085l-.147 2.218a1.613 1.613 0 0 1-2.075 1.439 1.613 1.613 0 0 0-2.059 1.3l-.606 3.926a.33.33 0 0 0 .375.376.33.33 0 0 1 .289.101l5.354 5.707a1.566 1.566 0 0 1-.243 2.353l-.555.389a.47.47 0 0 0-.1.673l1.664 2.134a2.643 2.643 0 0 1-.449 3.702l-.028.022c-.343.27-.686.437-1.118.501-.241.036-.55.046-.791.011l-5.67-.82a.61.61 0 0 0-.586.256l-2.117 3.06c-.041.061-.135.014-.112-.055a.07.07 0 0 0-.005-.05l-1.219-2.316a1.528 1.528 0 0 0-2.229-.539 1.53 1.53 0 0 0-.608 1.606l.251 1.05a3.116 3.116 0 0 0 3.264 2.382l5.174-.388c.367-.028.714.376.769.74.016.113.039.077.107.169l2.009 2.728a.69.69 0 0 0 .654.272l8.554-1.484c.679-.101.815.022 1.145.5.155.224.345.422.564.584l.46.341c.246.182.538.261.841.216a1.2 1.2 0 0 0 .619-.288l1.401-1.269c.357-.324.844-1.724.758-1.25-.062.343-.197-.041-.393-.328l-3.568-5.222a.678.678 0 0 1 .888-.974l4.892 2.723a.905.905 0 0 0 1.167-.252l.02-.027a.825.825 0 0 0-.088-1.082l-3.191-3.105a1.312 1.312 0 0 1 .89-2.253l5.418-.107.291-.043q.118-.018.23-.057c1.099-.38 1.164-1.908.102-2.381l-1.451-.646a1.9 1.9 0 0 0-1.057-.144l-6.604.984a1.14 1.14 0 0 1-.762-.154l-2.244-1.366a.52.52 0 0 0-.346-.07.52.52 0 0 1-.4-.108l-2.584-2.066a1.05 1.05 0 0 1-.384-.667l-.227-2.787a1.15 1.15 0 0 0-.204-.564 1.1 1.1 0 0 0-.203-.222l-.698-.583a5.23 5.23 0 0 1-1.442-6.102l.317-.727a4.16 4.16 0 0 0-1.122-4.834l-.772-.655a.93.93 0 0 0-.511-.217Zm-341.909 77.574a1.63 1.63 0 0 0-1.39 1.622l.007 1.051a2.09 2.09 0 0 1-1.901 2.091l-.745.067a1.11 1.11 0 0 0-.093 2.198l1.002.177a1.393 1.393 0 0 1 1.03 1.944l-.295.653a.788.788 0 0 0 .518 1.085.79.79 0 0 0 .907-.413l.361-.734a1.787 1.787 0 0 1 2.41-.805l2.264 1.145a1.813 1.813 0 0 0 2.398-.728l.204-.362a.6.6 0 0 0 .071-.384l-1.284-5.341a1.705 1.705 0 0 0-1.909-1.288l-.053.008a1.64 1.64 0 0 1-1.755-.995 1.63 1.63 0 0 0-1.747-.991Zm-2.186-23.175a1.68 1.68 0 0 0-1.531 1.259l-.874 3.393a1.525 1.525 0 0 0 .653 1.665c.55.354.814 1.017.657 1.652l-1.474 5.957a3.392 3.392 0 0 0 6.516 1.867l.109-.336a3.85 3.85 0 0 0 .007-2.374l-2.36-7.375a4.9 4.9 0 0 1-.141-2.456l.223-1.13a1.78 1.78 0 0 0-.19-1.207l-.029-.052a1.68 1.68 0 0 0-1.566-.863Zm262.915-78.986a1.65 1.65 0 0 0-1.27-.16l-.222.062a1.508 1.508 0 0 0-.724 2.451l.468.528a1.086 1.086 0 0 1-.565 1.777l-.221.052a.719.719 0 0 0-.051 1.386l6.938 2.188a8.5 8.5 0 0 0 1.993.376l4.905.331a5 5 0 0 1 1.598.374l1.725.714a1.67 1.67 0 0 0 1.597-.175l.123-.087c1.06-.743.836-2.373-.385-2.804a1.6 1.6 0 0 1-1.024-1.155l-.112-.505a2.53 2.53 0 0 0-1.77-1.878l-1.792-.512a5.16 5.16 0 0 0-3.106.084l-1.305.453a1.05 1.05 0 0 1-.868-.082z" clip-rule="evenodd"/><path fill="#0D0059" fill-opacity=".8" stroke="#000" d="M666.5 699.001c0 .003.001.047-.077.139a1.8 1.8 0 0 1-.458.35c-.464.271-1.187.556-2.182.845-1.983.575-4.932 1.137-8.758 1.674-7.647 1.074-18.724 2.043-32.428 2.857-27.403 1.628-65.268 2.635-107.097 2.635s-79.694-1.007-107.097-2.635c-13.704-.814-24.781-1.783-32.428-2.857-3.826-.537-6.775-1.099-8.758-1.674-.995-.289-1.718-.574-2.182-.845a1.8 1.8 0 0 1-.458-.35c-.077-.091-.077-.135-.077-.139s0-.048.077-.139c.082-.095.226-.214.458-.35.464-.271 1.187-.556 2.182-.845 1.983-.575 4.932-1.137 8.758-1.674 7.647-1.074 18.724-2.043 32.428-2.857 27.403-1.628 65.268-2.635 107.097-2.635s79.694 1.007 107.097 2.635c13.704.814 24.781 1.783 32.428 2.857 3.826.537 6.775 1.099 8.758 1.674.995.289 1.718.574 2.182.845.232.136.376.255.458.35.078.092.077.136.077.139Z"/><ellipse cx="515.5" cy="696.501" fill="#3E74FF" fill-opacity=".3" rx="100.5" ry="5.5"/><defs><linearGradient id="a" x1="280.5" x2="900.5" y1="140.416" y2="760.416" gradientUnits="userSpaceOnUse"><stop stop-color="#E1EDFF"/><stop offset="1" stop-color="#3E74FF"/></linearGradient></defs></svg>