<?xml version="1.0" encoding="UTF-8"?>
<svg xmlns="http://www.w3.org/2000/svg" xmlns:xlink="http://www.w3.org/1999/xlink" width="300px" height="71px" viewBox="0 0 300 71" version="1.1">
<g id="surface1">
<path style=" stroke:none;fill-rule:evenodd;fill:rgb(16.470589%,0%,53.333336%);fill-opacity:1;" d="M 239.988281 52.972656 L 249 18.035156 L 258.964844 18.035156 C 258.964844 18.035156 261.492188 17.792969 262.792969 18.824219 C 264.09375 19.859375 264.460938 21.453125 264.460938 21.453125 L 269.875 38.363281 L 276.9375 18.035156 L 286.582031 18.035156 C 286.582031 18.035156 288.980469 18.035156 290.222656 19.011719 C 291.464844 19.988281 291.839844 21.457031 291.839844 21.457031 L 299.742188 52.972656 L 290.378906 52.972656 L 283.320312 26.109375 L 275.90625 46.589844 L 265.980469 46.589844 C 265.980469 46.589844 264.785156 46.707031 263.644531 45.929688 C 262.5 45.15625 262.464844 44.445312 262.464844 44.445312 L 256.421875 26.109375 L 249.488281 52.976562 Z M 239.988281 52.972656 "/>
<path style=" stroke:none;fill-rule:evenodd;fill:rgb(16.470589%,0%,53.333336%);fill-opacity:1;" d="M 147.152344 18.03125 L 147.152344 25 L 163.875 26.128906 L 163.875 52.96875 L 173.53125 52.96875 L 173.53125 26.128906 L 190.253906 25 L 190.253906 18.03125 Z M 147.152344 18.03125 "/>
<path style=" stroke:none;fill-rule:evenodd;fill:rgb(16.470589%,0%,53.333336%);fill-opacity:1;" d="M 119.363281 18.03125 L 101.945312 52.96875 L 112.652344 52.96875 L 115.695312 46.542969 L 135.113281 46.542969 L 138.085938 52.96875 L 148.730469 52.96875 L 132.210938 20.324219 C 132.210938 20.324219 131.667969 19.121094 130.734375 18.582031 C 129.796875 18.046875 128.8125 18.03125 128.8125 18.03125 Z M 125.277344 25.574219 L 131.675781 39.445312 L 118.777344 39.445312 Z M 125.277344 25.574219 "/>
<path style=" stroke:none;fill-rule:evenodd;fill:rgb(16.470589%,0%,53.333336%);fill-opacity:1;" d="M 65.167969 18.03125 L 65.167969 52.96875 L 94.570312 52.96875 L 98.578125 44.929688 L 75.242188 44.929688 L 75.242188 18.03125 Z M 65.167969 18.03125 "/>
<path style=" stroke:none;fill-rule:evenodd;fill:rgb(16.470589%,0%,53.333336%);fill-opacity:1;" d="M 206.214844 18.03125 L 188.796875 52.96875 L 199.503906 52.96875 L 202.546875 46.542969 L 221.964844 46.542969 L 224.9375 52.96875 L 235.582031 52.96875 L 219.058594 20.324219 C 219.058594 20.324219 218.519531 19.121094 217.582031 18.582031 C 216.648438 18.046875 215.660156 18.03125 215.660156 18.03125 Z M 212.125 25.574219 L 218.527344 39.445312 L 205.625 39.445312 Z M 212.125 25.574219 "/>
<path style=" stroke:none;fill-rule:evenodd;fill:rgb(92.941177%,8.627451%,31.764707%);fill-opacity:1;" d="M 5.316406 29.257812 L 13.046875 27.042969 C 13.046875 27.042969 12.960938 26.527344 12.6875 26.273438 C 12.410156 26.019531 11.910156 25.859375 11.910156 25.859375 L 1.167969 21.949219 C 1.167969 21.949219 0.828125 21.832031 0.578125 21.972656 C 0.328125 22.109375 0.335938 22.46875 0.335938 22.46875 L 0.335938 27.480469 C 0.335938 27.480469 0.3125 27.960938 1.003906 29.035156 C 1.695312 30.109375 3.335938 29.835938 3.335938 29.835938 Z M 5.316406 29.257812 "/>
<path style=" stroke:none;fill-rule:evenodd;fill:rgb(92.941177%,8.627451%,31.764707%);fill-opacity:1;" d="M 36.085938 17.167969 L 43.273438 13.128906 C 43.273438 13.128906 43.382812 12.429688 43.105469 12.175781 C 42.828125 11.921875 42.496094 11.84375 42.496094 11.84375 L 11.449219 0.730469 C 11.449219 0.730469 11.105469 0.617188 10.859375 0.753906 C 10.609375 0.894531 10.617188 1.253906 10.617188 1.253906 L 10.617188 5.574219 C 10.617188 5.574219 10.613281 6.574219 11.304688 7.648438 C 12 8.722656 13.125 9.003906 13.125 9.003906 Z M 36.085938 17.167969 "/>
<path style=" stroke:none;fill-rule:evenodd;fill:rgb(92.941177%,8.627451%,31.764707%);fill-opacity:1;" d="M 36.085938 29.746094 L 43.273438 26.007812 C 43.273438 26.007812 43.425781 25.0625 43.148438 24.808594 C 42.871094 24.554688 42.496094 24.417969 42.496094 24.417969 L 1.167969 9.363281 C 1.167969 9.363281 0.828125 9.246094 0.578125 9.386719 C 0.328125 9.523438 0.335938 9.882812 0.335938 9.882812 L 0.335938 14.203125 C 0.335938 14.203125 0.332031 15.203125 1.023438 16.28125 C 1.71875 17.355469 2.84375 17.632812 2.84375 17.632812 Z M 36.085938 29.746094 "/>
<path style=" stroke:none;fill-rule:evenodd;fill:rgb(16.470589%,0%,53.333336%);fill-opacity:1;" d="M 42.496094 11.84375 C 42.496094 11.84375 42.917969 11.910156 43.273438 12.257812 C 43.628906 12.601562 43.632812 13.027344 43.632812 13.027344 L 43.632812 18.746094 C 43.632812 18.746094 43.617188 19.527344 43.296875 20.230469 C 42.976562 20.933594 42.507812 21.101562 42.507812 21.101562 L 41.535156 21.457031 L 10.507812 32.761719 C 10.507812 32.761719 10.355469 32.808594 10.164062 32.808594 C 9.96875 32.808594 9.820312 32.761719 9.820312 32.761719 L 1.175781 29.609375 C 1.175781 29.609375 0.960938 29.5625 0.65625 29.082031 C 0.3125 28.546875 0.335938 27.480469 0.335938 27.480469 C 0.335938 27.480469 0.390625 28.027344 0.699219 28.285156 C 1.007812 28.546875 1.828125 28.261719 1.828125 28.261719 L 41.535156 13.792969 C 41.535156 13.792969 43.113281 13.148438 43.113281 12.492188 C 43.113281 12.039062 42.496094 11.847656 42.496094 11.847656 Z M 42.496094 11.84375 "/>
<path style=" stroke:none;fill-rule:evenodd;fill:rgb(16.470589%,0%,53.333336%);fill-opacity:1;" d="M 42.496094 24.417969 C 42.496094 24.417969 42.917969 24.484375 43.273438 24.832031 C 43.628906 25.179688 43.632812 25.601562 43.632812 25.601562 L 43.632812 31.324219 C 43.632812 31.324219 43.617188 32.105469 43.296875 32.808594 C 42.976562 33.507812 42.507812 33.675781 42.507812 33.675781 L 41.535156 34.03125 L 10.507812 45.335938 L 10.507812 37.671875 L 41.535156 26.367188 C 41.535156 26.367188 43.113281 25.722656 43.113281 25.066406 C 43.113281 24.613281 42.496094 24.417969 42.496094 24.417969 Z M 42.496094 24.417969 "/>
<path style=" stroke:none;fill-rule:evenodd;fill:rgb(16.470589%,0%,53.333336%);fill-opacity:1;" d="M 27.09375 44.550781 C 27.390625 44.851562 27.390625 45.503906 27.390625 45.503906 L 27.390625 49.78125 C 27.390625 49.78125 27.375 50.5625 27.054688 51.265625 C 26.734375 51.96875 26.265625 52.136719 26.265625 52.136719 L 25.292969 52.492188 L 10.503906 57.878906 L 10.503906 50.214844 L 25.292969 44.828125 C 25.292969 44.828125 26.796875 44.253906 27.09375 44.550781 Z M 27.09375 44.550781 "/>
<path style=" stroke:none;fill-rule:evenodd;fill:rgb(16.470589%,0%,53.333336%);fill-opacity:1;" d="M 17.554688 60.546875 C 17.851562 60.84375 17.851562 61.5 17.851562 61.5 L 17.851562 65.777344 C 17.851562 65.777344 17.835938 66.558594 17.515625 67.261719 C 17.195312 67.964844 16.726562 68.128906 16.726562 68.128906 L 15.753906 68.484375 L 10.503906 70.492188 L 10.503906 62.828125 L 15.753906 60.820312 C 15.753906 60.820312 17.257812 60.25 17.554688 60.546875 Z M 17.554688 60.546875 "/>
</g>
</svg>
