<svg xmlns="http://www.w3.org/2000/svg" width="250" height="120"><rect width="100%" height="100%" fill="hsl(222.2, 47.4%, 11.2%)"/><g fill="hsl(152, 100%, 43%)"><svg width="85" height="75" y="20" viewBox="0 0 285 271"><path d="m283.22 148.25-44.81-31.13c-.69-.51-1.53-.79-2.39-.78h-78.91v-14.53h32.79c1.15 0 2.25-.46 3.07-1.27.81-.81 1.27-1.92 1.27-3.07V36.55c0-1.15-.46-2.25-1.27-3.07a4.35 4.35 0 0 0-3.07-1.27h-32.79V4.34c0-1.15-.46-2.25-1.27-3.07A4.35 4.35 0 0 0 152.77 0h-26.5c-2.4 0-4.34 1.94-4.34 4.34v28.01H82.2a4.35 4.35 0 0 0-3.77.74c-1.07.82-1.7 2.09-1.7 3.45s.63 2.62 1.7 3.44a4.35 4.35 0 0 0 3.77.74h87.84v40.41c-.35 1.3-.08 2.7.74 3.77s2.1 1.7 3.45 1.7 2.62-.63 3.45-1.7a4.35 4.35 0 0 0 .74-3.77V40.72h7.46V93.4H50.32L11.63 66.47l38.61-25.76h16.74a4.334 4.334 0 0 0 5.47-4.18c0-1.35-.63-2.62-1.7-3.45a4.35 4.35 0 0 0-3.77-.74h-18c-.83 0-1.65.24-2.34.69L1.87 62.92A4.06 4.06 0 0 0 0 66.34c0 1.39.66 2.69 1.78 3.51l44.81 31.18c.69.51 1.53.79 2.39.78h73.14v14.53H89.5c-2.39 0-4.34 1.94-4.34 4.34v60.92c0 1.15.46 2.25 1.27 3.07.81.81 1.92 1.27 3.07 1.27h32.62v80.74c0 1.15.46 2.25 1.27 3.07.81.81 1.92 1.27 3.07 1.27h26.46c1.15 0 2.25-.46 3.07-1.27.81-.81 1.27-1.92 1.27-3.07v-80.87h43.77c1.31.35 2.7.08 3.77-.74s1.7-2.1 1.7-3.44-.63-2.62-1.7-3.44a4.35 4.35 0 0 0-3.77-.74H93.71v-52.68h8.07v40.06a4.34 4.34 0 0 0 4.21 5.39 4.34 4.34 0 0 0 4.21-5.39v-40.06h124.5l38.69 26.93-38.61 25.76h-19.65c-1.89.51-3.2 2.23-3.2 4.18s1.31 3.67 3.2 4.18h20.91c.83 0 1.65-.24 2.34-.69l44.77-29.88a4.09 4.09 0 0 0 1.87-3.43c.02-1.4-.65-2.73-1.78-3.56ZM148.75 32.17h-18.22V8.54h18.22zm-18.22 153.8h18.22v76.49h-18.22zm18.22-69.68h-18.22v-14.35h18.22z"/></svg><text x="85" y="70" font-family="Verdana" font-size="38">Roteirize</text></g></svg>