<svg xmlns="http://www.w3.org/2000/svg" viewBox="0 0 250 120" width="250" height="120">
    <rect width="100%" height="100%" fill="hsl(222.2, 47.4%, 11.2%)"/>
    <g fill="hsl(152, 100%, 43%)">
        <svg viewBox="0 0 285 271" width="85" height="75" x="0" y="20">
            <path d="m283.22,148.25l-44.81-31.13c-.69-.51-1.53-.79-2.39-.78h-78.91v-14.53h32.79c1.15,0,2.25-.46,3.07-1.27.81-.81,1.27-1.92,1.27-3.07v-60.92c0-1.15-.46-2.25-1.27-3.07-.81-.81-1.92-1.27-3.07-1.27h-32.79V4.34c0-1.15-.46-2.25-1.27-3.07-.81-.81-1.92-1.27-3.07-1.27h-26.5c-2.4,0-4.34,1.94-4.34,4.34v28.01h-39.73c-1.3-.35-2.7-.08-3.77.74-1.07.82-1.7,2.09-1.7,3.45s.63,2.62,1.7,3.44c1.07.82,2.47,1.09,3.77.74h87.84v40.41c-.35,1.3-.08,2.7.74,3.77.82,1.07,2.1,1.7,3.45,1.7s2.62-.63,3.45-1.7c.82-1.07,1.09-2.47.74-3.77v-40.41h7.46v52.68H50.32l-38.69-26.93,38.61-25.76h16.74c1.3.35,2.7.08,3.77-.74,1.07-.82,1.7-2.09,1.7-3.44s-.63-2.62-1.7-3.45c-1.07-.82-2.47-1.09-3.77-.74h-18c-.83,0-1.65.24-2.34.69L1.87,62.92C.7,63.67,0,64.96,0,66.34c0,1.39.66,2.69,1.78,3.51l44.81,31.18c.69.51,1.53.79,2.39.78h73.14v14.53h-32.62c-2.39,0-4.34,1.94-4.34,4.34v60.92c0,1.15.46,2.25,1.27,3.07.81.81,1.92,1.27,3.07,1.27h32.62v80.74c0,1.15.46,2.25,1.27,3.07.81.81,1.92,1.27,3.07,1.27h26.46c1.15,0,2.25-.46,3.07-1.27.81-.81,1.27-1.92,1.27-3.07v-80.87h43.77c1.31.35,2.7.08,3.77-.74,1.07-.82,1.7-2.1,1.7-3.44s-.63-2.62-1.7-3.44c-1.07-.82-2.47-1.09-3.77-.74h-107.32v-52.68h8.07v40.06c-.32,1.3-.03,2.67.79,3.72.82,1.05,2.08,1.67,3.42,1.67s2.6-.62,3.42-1.67c.82-1.05,1.11-2.43.79-3.72v-40.06h124.5l38.69,26.93-38.61,25.76h-19.65c-1.89.51-3.2,2.23-3.2,4.18s1.31,3.67,3.2,4.18h20.91c.83,0,1.65-.24,2.34-.69l44.77-29.88c1.16-.75,1.87-2.04,1.87-3.43.02-1.4-.65-2.73-1.78-3.56h0ZM148.75,32.17h-18.22V8.54s18.22,0,18.22,0v23.63Zm-18.22,153.8h18.22v76.49h-18.22v-76.49Zm18.22-69.68h-18.22v-14.35s18.22,0,18.22,0v14.35Z"/>
        </svg>
        <text font-family="Verdana" font-size="38px" x="85" y="70">Roteirize</text>
    </g>
</svg>